<svg width="80" height="54" viewBox="0 0 80 54" fill="none" xmlns="http://www.w3.org/2000/svg">
<path d="M74.6667 53.3289H5.33333C2.38889 53.3289 0 50.94 0 47.9956V25.56H3.84222L4.70889 23.4622H6.64889L7.51333 25.5511H15.0733V23.9622L15.7489 25.5622H19.6733L20.3489 23.9356V25.5578H39.1333V22.1267H39.4889C39.7422 22.1356 39.8156 22.1578 39.8156 22.58V25.5622H49.5333V24.7644C50.5267 25.2689 51.6978 25.5644 52.94 25.5644C53.0111 25.5644 53.08 25.5644 53.1511 25.5622H53.14H57.2289L58.1044 23.4733H60.0444L60.9 25.5622H68.78V23.5756L69.9711 25.5622H76.2733V12.4422H70.0356V13.9911L69.1622 12.4422H62.7489V13.9911L61.9467 12.4422H53.2867C53.1756 12.4356 53.0422 12.4333 52.9111 12.4333C51.6822 12.4333 50.52 12.7178 49.4889 13.2267L49.5356 13.2067V12.4422H43.5622V13.2067C42.9489 12.7222 42.1667 12.4311 41.3156 12.4311C41.2111 12.4311 41.1089 12.4356 41.0089 12.4444H41.0222H19.1933L17.7289 15.8333L16.2244 12.4444H9.34889V13.9933L8.59111 12.4444H2.72444L0.00666667 18.6667V5.33333C0.00666667 2.38889 2.39556 0 5.34 0H74.6733C77.6178 0 80.0067 2.38889 80.0067 5.33333V28.6222H75.8445C75.7778 28.6178 75.6978 28.6178 75.62 28.6178C74.6556 28.6178 73.76 28.9067 73.0133 29.4022L73.0311 29.3911V28.6222H66.8756C66.8089 28.6178 66.7289 28.6156 66.6489 28.6156C65.7289 28.6156 64.8733 28.9044 64.1756 29.3978L64.1889 29.3889V28.62H53.1978V29.3889C52.3489 28.9044 51.3311 28.62 50.2489 28.62C50.22 28.62 50.1911 28.62 50.1622 28.62H50.1667H42.9156V29.3889C42.1467 28.8933 41.2089 28.6 40.2022 28.6C40.0422 28.6 39.8822 28.6067 39.7244 28.6222L39.7444 28.62H31.6311L29.7733 30.6289L28.0356 28.62H15.9156V41.7489H27.8089L29.7222 39.7089L31.5244 41.7489H38.8556V38.6756H39.8778C39.96 38.68 40.0578 38.68 40.1556 38.68C41.0733 38.68 41.9511 38.5067 42.7578 38.1933L42.7089 38.2111V41.7533H48.7533V38.3333H49.0444C49.4133 38.3333 49.4511 38.3467 49.4511 38.72V41.7556H67.82C67.8867 41.7578 67.9667 41.76 68.0444 41.76C69.0978 41.76 70.08 41.4444 70.8978 40.9044L70.8778 40.9156V41.7556H76.7044C76.7867 41.7578 76.8844 41.76 76.9822 41.76C78.0733 41.76 79.1111 41.5356 80.0533 41.1289L80.0022 41.1489V47.9978C80.0022 50.9422 77.6133 53.3311 74.6689 53.3311L74.6667 53.3289ZM46.9 39.9089H44.6378V30.4978H49.8289C49.9778 30.4844 50.1489 30.4756 50.3244 30.4756C51.1244 30.4756 51.8844 30.6467 52.5689 30.9556L52.5333 30.9422C53.2289 31.3244 53.6933 32.0533 53.6933 32.8889C53.6933 32.94 53.6911 32.9889 53.6889 33.0378V33.0311C53.6889 33.0556 53.6911 33.0867 53.6911 33.1156C53.6911 34.1956 53.04 35.1244 52.1067 35.5289L52.0889 35.5356C52.5356 35.6956 52.9089 35.9689 53.1867 36.3222L53.1911 36.3267C53.4356 36.7289 53.5822 37.2178 53.5822 37.7378C53.5822 37.8467 53.5756 37.9511 53.5644 38.0578L53.5667 38.0444V39.9067H51.3089V38.7289C51.3311 38.5978 51.3444 38.4444 51.3444 38.2889C51.3444 37.7711 51.1978 37.2867 50.9467 36.8756L50.9533 36.8867C50.5911 36.6111 50.1311 36.4444 49.6333 36.4444C49.5178 36.4444 49.4022 36.4533 49.2911 36.4711L49.3044 36.4689H46.9V39.9067V39.9089ZM46.9 32.4422V34.5556H49.6333C49.6933 34.5622 49.76 34.5644 49.8311 34.5644C50.1622 34.5644 50.4778 34.4889 50.7578 34.3556L50.7444 34.3622C51.0267 34.1778 51.2111 33.8644 51.2111 33.5067C51.2111 33.4889 51.2111 33.4733 51.2089 33.4556C51.2111 33.4378 51.2111 33.42 51.2111 33.4C51.2111 33.0622 51.0244 32.7667 50.7489 32.6133L50.7444 32.6111C50.4844 32.4933 50.1822 32.4244 49.8622 32.4244C49.7978 32.4244 49.7333 32.4267 49.6689 32.4333H49.6778L46.9 32.4422ZM26.8444 39.9067H17.94V30.4978H26.9844L29.7511 33.5822L32.6111 30.4978H39.7956C42.3467 30.4978 43.5867 31.5133 43.5867 33.5978C43.5867 35.72 42.3044 36.7511 39.6756 36.7511H36.8644V39.9044H32.4933L29.7244 36.7956L26.8467 39.9067H26.8444ZM34.6244 31.5067L31.1711 35.2178L34.6244 39.0489V31.5067ZM20.1822 36.0733V37.9444H25.7111L28.2667 35.1844L25.8089 32.4422H20.18V34.1533H25.1178V36.0711L20.1822 36.0733ZM36.8644 32.4444V34.84H39.7689C40.6578 34.84 41.1689 34.3867 41.1689 33.5956C41.1689 32.84 40.6933 32.4422 39.7933 32.4422L36.8644 32.4444ZM76.9489 39.9111H72.6067V37.8889H76.9311C76.9822 37.8956 77.04 37.9 77.1 37.9C77.3778 37.9 77.6356 37.8089 77.8444 37.6533L77.8422 37.6556C78.0044 37.5044 78.1067 37.2889 78.1067 37.0489C78.1067 37.0467 78.1067 37.0444 78.1067 37.0422C78.1067 37.0333 78.1067 37.0222 78.1067 37.0133C78.1067 36.7756 78 36.5644 77.8333 36.4222C77.6467 36.2867 77.4133 36.2067 77.1622 36.2067C77.12 36.2067 77.0778 36.2089 77.0378 36.2133H77.0422L76.6267 36.2C74.5956 36.1467 72.2956 36.0844 72.2956 33.3C72.2956 31.9444 73.1445 30.4978 75.52 30.4978H80.0022V32.5022H75.9022C75.8511 32.4956 75.7933 32.4933 75.7333 32.4933C75.4622 32.4933 75.2089 32.5622 74.9867 32.6844L74.9956 32.68C74.7978 32.8111 74.6667 33.0356 74.6667 33.2867C74.6667 33.3089 74.6667 33.3289 74.6689 33.3511V33.3489V33.3733C74.6689 33.6889 74.8733 33.9556 75.1578 34.0489L75.1622 34.0511C75.3822 34.12 75.6356 34.1622 75.8978 34.1622C75.9422 34.1622 75.9889 34.16 76.0333 34.1578H76.0267L77.2467 34.1889C77.3489 34.1778 77.4689 34.1711 77.5889 34.1711C78.4267 34.1711 79.1978 34.4622 79.8044 34.9511L79.7978 34.9467C79.8644 35 79.9222 35.0578 79.9733 35.1222L79.9756 35.1244L80.0022 38.7067C79.3556 39.4578 78.4022 39.9311 77.3378 39.9311C77.2 39.9311 77.0644 39.9222 76.9333 39.9089L76.9489 39.9111ZM68.1733 39.9111H63.7911V37.8889H68.1511C68.2 37.8956 68.2578 37.9 68.3156 37.9C68.5978 37.9 68.86 37.8089 69.0733 37.6533L69.0689 37.6556C69.2311 37.5044 69.3311 37.2867 69.3311 37.0489C69.3311 37.0467 69.3311 37.0444 69.3311 37.0422C69.3311 37.0378 69.3311 37.0311 69.3311 37.0267C69.3311 36.7867 69.2244 36.5689 69.0578 36.4222C68.8689 36.2867 68.6311 36.2067 68.3756 36.2067C68.3333 36.2067 68.2911 36.2089 68.2511 36.2133H68.2556L67.8422 36.2C65.8178 36.1467 63.52 36.0844 63.52 33.3C63.52 31.9444 64.3644 30.4978 66.7356 30.4978H71.2422V32.5022H67.1178C67.0667 32.4956 67.0089 32.4933 66.9511 32.4933C66.6822 32.4933 66.4289 32.5622 66.2089 32.6844L66.2178 32.68C66.0111 32.8244 65.8778 33.06 65.8778 33.3267C65.8778 33.6556 66.08 33.9378 66.3644 34.0556L66.3689 34.0578C66.5911 34.1267 66.8444 34.1689 67.1089 34.1689C67.1556 34.1689 67.2044 34.1667 67.2511 34.1644H67.2444L68.4556 34.1956C68.5578 34.1844 68.6756 34.18 68.7933 34.18C69.6378 34.18 70.4156 34.4711 71.0289 34.96L71.0222 34.9533C71.4444 35.42 71.7044 36.04 71.7044 36.7222C71.7044 36.8 71.7 36.88 71.6933 36.9556V36.9444C71.7 38.9067 70.5111 39.9067 68.1667 39.9067L68.1733 39.9111ZM62.4444 39.9111H54.9333V30.4956H62.4378V32.44H57.1778V34.1511H62.3156V36.0689H57.1778V37.94L62.4444 37.9489V39.9044V39.9111ZM66.8222 23.72H62.2422L61.3667 21.6222H56.6956L55.8467 23.72H53.2156C53.1422 23.7244 53.0556 23.7267 52.9689 23.7267C51.8267 23.7267 50.7756 23.3333 49.9444 22.6733L49.9556 22.68C49.1978 21.8422 48.7356 20.7289 48.7356 19.5044C48.7356 19.3578 48.7422 19.2111 48.7556 19.0689L48.7533 19.0867C48.7422 18.9622 48.7356 18.8178 48.7356 18.6711C48.7356 17.4178 49.2022 16.2756 49.9711 15.4044L49.9667 15.4089C50.76 14.7156 51.8044 14.2933 52.9489 14.2933C53.1022 14.2933 53.2511 14.3 53.4 14.3156L53.3822 14.3133H55.56V16.32H53.4267C53.3467 16.3089 53.2533 16.3022 53.1578 16.3022C52.5911 16.3022 52.0778 16.52 51.6933 16.8778L51.6956 16.8756C51.2867 17.3978 51.04 18.0644 51.04 18.7867C51.04 18.8644 51.0422 18.9422 51.0489 19.0178V19.0067C51.04 19.0911 51.0356 19.1911 51.0356 19.2911C51.0356 20.0156 51.2733 20.6844 51.6733 21.2244L51.6667 21.2156C52.0422 21.5222 52.5244 21.7089 53.0533 21.7089C53.1178 21.7089 53.18 21.7067 53.2422 21.7H53.2333H54.2422L57.4222 14.3H60.8L64.6067 23.1889V14.3H68.0311L71.9822 20.8511V14.3H74.2933V23.7044H71.0844L66.8178 16.6422V23.7044L66.8222 23.72ZM59.0467 15.9022L57.4978 19.6533H60.6022L59.0467 15.9022ZM37.2711 23.7156H35.0222V14.3067H40.1956C40.3556 14.2889 40.5422 14.28 40.7311 14.28C41.5244 14.28 42.2778 14.4556 42.9533 14.7711L42.92 14.7578C43.6067 15.1422 44.0622 15.8644 44.0622 16.6933C44.0622 16.7467 44.06 16.7978 44.0578 16.8489V16.8422V16.9111C44.0578 17.9933 43.4133 18.9244 42.4889 19.3422L42.4711 19.3489C42.9178 19.5178 43.2933 19.7889 43.58 20.1356L43.5844 20.14C43.8289 20.54 43.9756 21.0244 43.9756 21.5444C43.9756 21.6578 43.9689 21.7689 43.9556 21.88L43.9578 21.8667V23.7133H41.6889L41.68 22.5267V22.3489C41.6933 22.2489 41.7022 22.1333 41.7022 22.0133C41.7022 21.5244 41.5622 21.0689 41.3178 20.6844L41.3244 20.6956C40.9622 20.4289 40.5067 20.2667 40.0133 20.2667C39.8978 20.2667 39.7822 20.2756 39.6711 20.2933L39.6844 20.2911H37.2733V23.7133L37.2711 23.7156ZM37.2711 16.2644V18.3533H40C40.0644 18.36 40.14 18.3644 40.2156 18.3644C40.5422 18.3644 40.8489 18.2889 41.1222 18.1533L41.1111 18.1578C41.3933 17.9844 41.5778 17.6778 41.5778 17.3289C41.5778 17.3089 41.5778 17.2867 41.5756 17.2667C41.5778 17.2489 41.5778 17.2311 41.5778 17.2111C41.5778 16.8756 41.3867 16.5844 41.1067 16.44L41.1022 16.4378C40.8356 16.3222 40.5267 16.2533 40.2 16.2533C40.1422 16.2533 40.0844 16.2556 40.0289 16.26H40.0356L37.2711 16.2644ZM13.4578 23.7156H8.88889L8.02444 21.6178H3.34L2.46889 23.7156H0.0244444L4.05333 14.3067H7.39333L11.2178 23.2111V14.3067H14.8867L17.8289 20.6867L20.5333 14.3067H24.2778V23.7111H21.9667L21.9622 16.3511L18.7022 23.7133H16.7289L13.46 16.34V23.7133L13.4578 23.7156ZM5.67111 15.9022L4.14 19.6533H7.21111L5.67111 15.9022ZM47.6444 23.7133H45.3511V14.3067H47.6467V23.7111L47.6444 23.7133ZM33.4533 23.7133H25.9556V14.3067H33.4667V16.2622H28.2044V17.9578H33.34V19.8889H28.2V21.7689H33.4622V23.7111L33.4533 23.7133Z" fill="white"/>
</svg>
