<svg width="100" height="80" viewBox="0 0 100 80" fill="none" xmlns="http://www.w3.org/2000/svg">
<g clip-path="url(#clip0_56_2)">
<path d="M50.2353 0.832703L100.236 27.6472L100 28.5886H-1.52588e-05L-0.236343 27.6472L49.7627 0.832703L49.999 0.70575L50.2353 0.832703ZM12.2217 25.0983H87.7773L49.999 4.83563L12.2217 25.0983Z" fill="white" stroke="white"/>
<path d="M49.9834 10.8634C53.7397 10.8634 56.9949 13.3259 56.9951 16.5724C56.9951 19.8213 53.7399 22.2843 49.9834 22.2843C46.2267 22.2843 42.9716 19.8214 42.9716 16.5724C42.9718 13.3259 46.227 10.8634 49.9834 10.8634ZM49.9834 14.3536C48.2771 14.3536 47.0851 15.4489 47.0849 16.5724C47.0849 17.6987 48.2773 18.7941 49.9834 18.7941C51.6894 18.794 52.8818 17.6987 52.8818 16.5724C52.8816 15.4489 51.6895 14.3537 49.9834 14.3536Z" fill="white" stroke="white"/>
<path d="M100.306 68.212V79.2266H-0.308578V68.212H100.306ZM3.8047 75.7364H96.1924V71.7022H3.8047V75.7364Z" fill="white" stroke="white"/>
<path d="M10.0502 32.1884V64.2516H22.5657V32.1884H10.0502ZM19.4529 61.7613H13.1631V34.6789H19.4529V61.7613Z" fill="white" stroke="white"/>
<path d="M24.6269 32.1884V64.2516H37.1424V32.1884H24.6269ZM34.0296 61.7613H27.7398V34.6789H34.0296V61.7613Z" fill="white" stroke="white"/>
<path d="M62.8575 32.1884V64.2516H75.3731V32.1884H62.8575ZM72.2602 61.7613H65.9704V34.6789H72.2602V61.7613Z" fill="white" stroke="white"/>
<path d="M77.4312 32.1884V64.2516H89.9498V32.1884H77.4312ZM86.8369 61.7613H80.5443V34.6789H86.8369V61.7613Z" fill="white" stroke="white"/>
<path d="M49.183 41.4247L49.1859 42.2372H57.0179L47.5179 58.2528L50.7533 46.7802L51.0453 45.7421H44.225L49.1634 36.6278L49.183 41.4247Z" fill="white" stroke="white" stroke-width="1.63265"/>
</g>
<defs>
<clipPath id="clip0_56_2">
<rect width="100" height="80" fill="white"/>
</clipPath>
</defs>
</svg>
