<svg width="374" height="275" viewBox="0 0 374 275" fill="none" xmlns="http://www.w3.org/2000/svg">
<g filter="url(#filter0_d_36_24)">
<rect x="4" width="365.333" height="266.667" rx="60" fill="#999999"/>
<path d="M59.7333 1.33332C30.4 4.93332 13.6 19.2 7.19999 46.2667C5.33332 54 5.06666 66.4 5.06666 133.333C5.06666 219.733 5.19999 221.867 13.6 237.6C20.6667 250.8 31.4667 258.667 49.3333 263.6C57.3333 265.867 67.2 266 186.667 266C306.133 266 316 265.867 324 263.6C341.867 258.667 352.667 250.8 359.733 237.6C368.133 221.867 368.267 219.733 368.267 133.333C368.267 66.4 368 54 366.133 46.2667C360.533 22.8 348.267 9.99999 324.667 3.06665C317.333 0.93332 306.133 0.799986 192.667 0.533319C124.533 0.399986 64.6667 0.799986 59.7333 1.33332ZM154.4 34.1333L184.133 62.9333L183.733 73.0667C183.333 82.4 183.067 83.4667 180 84.9333C177.333 86.2667 158.4 86.5333 93.3333 86.2667L9.99999 86L10.1333 71.3333C10.6667 33.2 24.1333 13.3333 52.9333 8.13332C65.2 5.86665 67.2 5.73332 96.6667 5.59999L124.667 5.33332L154.4 34.1333ZM239.867 6.26665C239.6 7.59999 189.067 56.4 187.333 56.9333C186.667 57.0667 174 45.6 159.333 31.3333L132.667 5.46665H186.4C215.867 5.33332 240 5.73332 239.867 6.26665ZM322.667 8.26665C334.133 11.3333 339.333 14 346 20.1333C357.6 30.8 362.8 46.5333 363.2 71.3333L363.333 86L311.067 86.6667C258.8 87.3333 258.8 87.3333 255.733 90.4C252.667 93.3333 252.667 94 252 134L251.333 174.667L187.6 175.067L124 175.333V133.6V92H150.667C187.467 92 189.333 91.0667 189.333 72.2667V63.3333L218.933 34.2667L248.667 5.19999L282 5.86665C305.333 6.26665 317.467 6.93332 322.667 8.26665ZM118.667 133.333V174.667H65.3333C36 174.667 11.7333 174.8 11.3333 174.933C10.9333 175.2 10.4 156.533 10.2667 133.6L9.99999 92H64.4H118.667V133.333ZM362.667 132.667C362.667 155.067 362.8 173.6 363.067 174C363.2 174.4 339.467 174.8 310.267 175.067L257.333 175.333V135.733C257.333 101.6 257.6 95.8667 259.467 94.1333C261.2 92.2667 267.867 92 312.133 92H362.667V132.667ZM184 191.2V202.4L153.6 232L123.333 261.6L90.6667 260.933C49.0667 260 39.7333 257.867 27.3333 246.533C20.1333 240 15.7333 232 12.8 220.4C10.5333 211.6 8.39999 185.6 9.73332 182.133C10.5333 180.267 19.0667 180 97.3333 180H184V191.2ZM363.2 195.333C362.8 220.133 357.6 235.867 346 246.533C333.6 258 324.133 260.133 282.667 260.8L250 261.467L219.6 231.733L189.2 202L189.333 190.933V180L276.4 180.267L363.333 180.667L363.2 195.333ZM214.8 234.533L242 261.2H186.667H131.333L158.667 234.667C173.733 220 186.4 208.133 186.8 208C187.2 208 199.733 220 214.8 234.533Z" fill="black"/>
</g>
<defs>
<filter id="filter0_d_36_24" x="0" y="0" width="373.333" height="274.667" filterUnits="userSpaceOnUse" color-interpolation-filters="sRGB">
<feFlood flood-opacity="0" result="BackgroundImageFix"/>
<feColorMatrix in="SourceAlpha" type="matrix" values="0 0 0 0 0 0 0 0 0 0 0 0 0 0 0 0 0 0 127 0" result="hardAlpha"/>
<feOffset dy="4"/>
<feGaussianBlur stdDeviation="2"/>
<feComposite in2="hardAlpha" operator="out"/>
<feColorMatrix type="matrix" values="0 0 0 0 0 0 0 0 0 0 0 0 0 0 0 0 0 0 0.25 0"/>
<feBlend mode="normal" in2="BackgroundImageFix" result="effect1_dropShadow_36_24"/>
<feBlend mode="normal" in="SourceGraphic" in2="effect1_dropShadow_36_24" result="shape"/>
</filter>
</defs>
</svg>
