<svg width="144" height="84" viewBox="0 0 144 84" fill="none" xmlns="http://www.w3.org/2000/svg">
<path d="M110.657 0.0785186C105.75 0.545188 100.617 1.93186 91.7898 5.17188C89.6965 5.94522 84.4565 7.86523 80.1231 9.46524C71.5364 12.6253 50.6697 20.2253 36.0563 25.532C26.3229 29.0654 24.2429 29.932 21.8963 31.492C18.3229 33.8787 15.4296 36.9187 12.8562 41.0254C10.9096 44.1321 9.54955 47.0921 4.7762 58.6255C-0.143811 70.5189 -0.0104773 70.0923 0.00285611 73.1989C0.00285611 75.4656 0.17619 76.2923 0.949526 77.879C2.20286 80.479 4.64287 82.319 7.98955 83.239L9.32289 83.599H68.3897C116.19 83.599 127.683 83.5723 128.657 83.4257C133.817 82.679 137.377 81.2257 139.91 78.8123C141.417 77.359 142.323 75.879 142.937 73.8389C143.377 72.3856 143.523 69.5323 143.257 67.6256C143.163 66.9456 142.403 63.7589 141.563 60.5322C139.11 51.0655 136.763 41.9454 134.323 32.3987C130.617 17.892 130.177 16.2919 128.963 12.9986C126.083 5.17188 122.35 1.35853 116.51 0.27852C115.083 0.0118516 112.323 -0.0814823 110.657 0.0785186ZM85.0565 23.0253C84.8298 24.012 84.7231 24.5453 84.7231 24.692C84.7231 24.8253 85.9098 24.8653 90.2565 24.8653H95.7898L95.6965 25.292C95.6432 25.532 95.5365 25.9987 95.4565 26.332L95.3098 26.932L81.7498 26.972C68.8964 26.9987 68.1897 26.9853 68.1897 26.772C68.2031 26.6387 68.2697 26.172 68.3631 25.732L68.5364 24.932L74.1898 24.8653L79.8431 24.7987L80.0164 23.932C80.1098 23.452 80.2164 22.9853 80.2564 22.892C80.2964 22.772 80.9231 22.732 82.7231 22.732H85.1231L85.0565 23.0253ZM103.39 23.0253C103.39 23.052 103.297 23.532 103.19 24.1053C102.75 26.3853 101.99 26.9987 99.5632 26.9987C98.8165 26.9987 98.4565 26.9453 98.4565 26.852C98.4565 26.6787 99.1098 23.4387 99.1898 23.1587C99.2298 23.0387 99.7765 22.9987 101.323 22.9987C102.457 22.9987 103.39 23.012 103.39 23.0253ZM120.297 23.3053C120.537 23.4387 120.79 23.7053 120.87 23.9053C121.15 24.6253 120.91 25.0787 119.483 26.5853L118.137 27.9987L119.697 28.0387C120.55 28.052 121.257 28.132 121.257 28.1853C121.257 28.252 120.723 30.812 120.07 33.8654C118.723 40.1587 118.75 40.0787 117.337 40.7854L116.563 41.1721L111.377 41.2388L106.19 41.3054L106.203 40.9854C106.203 40.8121 106.643 38.6254 107.163 36.1321L108.137 31.5987L111.897 31.5587L115.657 31.532L115.59 31.8254C115.27 33.292 114.323 37.6521 114.323 37.7187C114.323 37.7587 113.63 37.7987 112.79 37.7987H111.27L111.337 37.3587C111.39 37.1321 111.563 36.2521 111.737 35.4387C112.163 33.4254 112.177 33.532 111.403 33.532C110.883 33.532 110.723 33.5854 110.67 33.7587C110.63 33.892 110.39 35.0121 110.123 36.2654C109.857 37.5054 109.603 38.6654 109.563 38.8254L109.497 39.1321H112.483H115.47L115.763 37.6921C115.937 36.9054 116.363 34.8654 116.71 33.1587L117.363 30.0654H112.19H107.017L106.83 30.892C106.723 31.3587 106.19 33.8387 105.643 36.4254L104.657 41.1054L104.19 41.1854C103.497 41.3054 101.417 41.2788 101.337 41.1588C101.31 41.1054 101.883 38.1454 102.643 34.5987L104.003 28.132L105.977 28.092L107.95 28.052L107.39 27.0653L106.843 26.0653H108.843H110.83L111.403 27.0653C111.963 28.0387 111.977 28.0653 112.497 28.0653C112.963 28.0653 113.137 27.9453 114.257 26.9187C116.217 25.1187 116.577 25.2653 110.11 25.2653C104.723 25.2653 104.59 25.2653 104.59 24.9987C104.59 24.7453 104.817 23.492 104.923 23.1587C104.977 23.0253 106.443 22.9987 112.417 23.0253C119.283 23.0653 119.897 23.0787 120.297 23.3053ZM89.7898 29.1454C89.7898 31.1587 91.0298 32.3854 93.3631 32.6787C93.7365 32.732 94.0565 32.8254 94.0565 32.892C94.0565 32.9587 93.9631 33.4387 93.8431 33.9587L93.6298 34.9054L91.9365 34.8254C91.0165 34.7721 89.9231 34.6521 89.5098 34.5587L88.7498 34.372L87.9498 35.5187C86.9898 36.8787 85.0698 38.8254 83.6165 39.8921L82.5898 40.6654L83.2564 40.9588C84.8431 41.6788 87.8298 42.1988 90.2698 42.1988C91.1498 42.1988 91.9098 42.2254 91.9498 42.2654C91.9898 42.3054 91.9231 42.7721 91.8031 43.2921C91.5898 44.2254 91.5631 44.2654 91.1231 44.3588C90.5765 44.4788 86.7231 44.3721 84.7231 44.1854C82.8431 43.9988 81.6031 43.7454 79.8431 43.1854L78.3631 42.7054L77.2698 43.0521C75.7631 43.5321 73.2431 44.0254 71.3897 44.1988C69.6431 44.3588 64.6564 44.4388 64.5231 44.3054C64.4431 44.2388 64.6164 43.1321 64.8031 42.4521C64.8564 42.2788 65.1364 42.2388 66.5897 42.2254C68.3631 42.1988 70.6564 41.9321 72.1631 41.5854C73.5098 41.2788 75.1231 40.7321 75.1231 40.5988C75.1231 40.5188 75.0698 40.4654 75.0031 40.4654C74.7631 40.4654 73.3098 38.5187 72.7631 37.4654C72.4564 36.8787 72.0831 35.9454 71.9231 35.3987C71.7497 34.8521 71.6031 34.3854 71.5897 34.3587C71.5631 34.332 71.1497 34.412 70.6431 34.5321C69.6031 34.7721 66.4564 34.9721 66.4564 34.7854C66.4564 34.7187 66.5631 34.1987 66.6831 33.6387C66.8964 32.612 66.9097 32.5987 67.3231 32.5987C67.9764 32.5987 69.2297 32.2254 70.0564 31.7854C70.9897 31.292 72.0031 30.332 72.6697 29.3454L73.1631 28.5987H75.6164H78.0698L77.9898 28.892C77.6031 30.172 75.5498 32.4787 74.1631 33.1987L73.3898 33.5987L75.0698 33.6654L76.7498 33.732L77.0431 34.7321C77.2031 35.2787 77.4831 35.9987 77.6564 36.3321C78.0431 37.0921 79.0964 38.4654 79.2831 38.4654C79.7898 38.4654 82.5364 35.7987 83.4298 34.4254L83.9365 33.6654H85.5498H87.1631L86.4698 32.9854C85.6165 32.1454 85.0431 31.0254 84.8298 29.8254C84.5898 28.3987 84.4565 28.4653 87.3231 28.4653H89.7898V29.1454ZM101.083 28.772C101.603 29.052 101.923 29.612 101.923 30.252C101.923 30.5187 101.523 32.572 101.043 34.8254C99.7898 40.7454 99.7765 40.7854 99.9232 41.2254C100.217 42.0254 99.7365 41.9988 110.563 42.0388L120.457 42.0654V42.3721C120.443 42.5321 120.363 42.9988 120.27 43.3988L120.097 44.1321L109.443 44.1721C101.977 44.1988 98.5498 44.1588 97.9898 44.0654C96.8432 43.8521 96.1498 43.3988 95.7898 42.6521C95.3632 41.7854 95.4565 41.0121 96.5765 35.7321C97.0965 33.3054 97.5232 31.1987 97.5232 31.052C97.5232 30.732 97.2165 30.5987 96.4298 30.5987C96.0698 30.5987 95.9232 30.5454 95.9232 30.3987C95.9232 30.1987 96.1632 28.9187 96.2698 28.6253C96.3632 28.332 100.51 28.452 101.083 28.772ZM61.803 42.8254C61.9764 43.0388 61.9631 43.0521 61.763 42.8788C61.6297 42.7854 61.523 42.6788 61.523 42.6521C61.523 42.5454 61.6297 42.6121 61.803 42.8254ZM58.1897 44.5188C58.1897 44.5454 58.083 44.6521 57.963 44.7454C57.7497 44.9188 57.7364 44.9054 57.9097 44.6921C58.083 44.4788 58.1897 44.4121 58.1897 44.5188ZM63.9364 45.4921C64.1097 45.7054 64.0964 45.7188 63.8964 45.5454C63.7631 45.4521 63.6564 45.3454 63.6564 45.3188C63.6564 45.2121 63.7631 45.2788 63.9364 45.4921ZM55.3897 47.0521C55.3897 47.0788 55.283 47.1855 55.163 47.2788C54.9497 47.4521 54.9364 47.4388 55.1097 47.2255C55.283 47.0121 55.3897 46.9455 55.3897 47.0521ZM53.6564 48.6388C53.6564 48.6655 53.523 48.7988 53.363 48.9455L53.0564 49.1988L53.3097 48.8921C53.5497 48.6121 53.6564 48.5321 53.6564 48.6388ZM86.1365 49.2521C86.9098 49.5988 87.2565 50.0921 87.2565 50.8521C87.2565 51.1855 86.4965 55.0255 85.5765 59.3722C84.6565 63.7322 83.9231 67.3456 83.9498 67.4122C83.9765 67.4656 84.4431 67.3322 84.9898 67.0922C87.3365 66.0656 89.1365 64.4122 90.2031 62.3055C90.8298 61.0789 90.9231 61.1322 88.2698 61.1322H85.9631L86.1898 60.1189C86.3231 59.5722 86.4698 59.0789 86.5231 59.0255C86.5631 58.9722 87.6431 58.9189 88.9231 58.8922L91.2298 58.8522L91.5231 57.4255C91.6831 56.6388 91.8431 55.8655 91.8831 55.6922L91.9498 55.3988H89.6698C88.1631 55.3988 87.3898 55.3455 87.3898 55.2522C87.3898 55.1855 87.4831 54.7055 87.6031 54.1855L87.8165 53.2655H89.0031H90.1898L89.7765 52.4522C89.3631 51.6121 88.9898 50.2255 88.9898 49.4255V48.9988H90.9231H92.8565V49.8255C92.8565 50.8121 93.1498 52.2655 93.4565 52.8655C93.6698 53.2655 93.6831 53.2788 94.5632 53.2388L95.4565 53.1988L96.1365 52.2788C96.8032 51.3988 97.2832 50.5455 97.7098 49.4921L97.9098 48.9988H99.7765C101.123 48.9988 101.657 49.0388 101.657 49.1588C101.657 49.6388 100.323 51.6521 99.2698 52.7588L98.8032 53.2655H100.297H101.79L101.71 53.5988C101.67 53.7722 101.563 54.2388 101.47 54.6255L101.323 55.3322L98.7232 55.3988L96.1232 55.4655L95.8432 56.7322C95.6965 57.4255 95.5365 58.1989 95.4832 58.4255L95.4032 58.8655H97.8432C99.1765 58.8655 100.31 58.9055 100.35 58.9455C100.39 58.9855 100.35 59.3322 100.257 59.7055C100.163 60.0922 100.043 60.5589 100.003 60.7589L99.9232 61.1322H97.3632H94.8165L94.9098 62.1989C95.1232 64.7589 96.2432 66.6256 98.1498 67.6256C98.9365 68.0389 98.9098 67.9056 98.5365 69.5856C98.3898 70.2256 98.3498 70.2656 97.9898 70.2389C97.7632 70.2256 97.0298 69.9323 96.3498 69.5856C94.8965 68.8522 93.5231 67.6522 92.7098 66.3856L92.1498 65.5322L91.3365 66.2922C88.9231 68.5189 85.4031 69.9589 81.8564 70.1589C81.0564 70.1989 80.3098 70.3056 80.2031 70.3856C80.0564 70.4923 80.0298 70.4923 80.1098 70.3723C80.1764 70.2389 80.0964 70.2256 79.7764 70.2923L79.3498 70.3723L79.4431 69.6923C79.5231 69.0922 79.4964 68.9989 79.3098 68.9989C79.1764 68.9989 77.3364 69.3056 75.2298 69.6789C73.1098 70.0523 71.3497 70.3456 71.3231 70.3056C71.2964 70.2789 71.4031 69.6789 71.5497 68.9722L71.8297 67.6789L72.7764 67.5189L73.7364 67.3589L75.3098 60.0122C76.1764 55.9722 76.9098 52.5588 76.9498 52.4255C77.0031 52.1988 77.1631 52.1855 78.7898 52.2255C79.7631 52.2522 80.6031 52.3055 80.6431 52.3455C80.6831 52.3855 80.6031 52.9588 80.4564 53.6122C80.0564 55.3988 79.9898 55.2788 81.3498 55.2388L82.5231 55.1988L82.8831 53.5322C83.4031 51.1455 83.4564 51.3188 82.1631 51.2255C81.5498 51.1721 79.7764 51.1321 78.2298 51.1321C76.0431 51.1321 75.3898 51.0921 75.3898 50.9588C75.3898 50.8121 75.4964 50.2788 75.7231 49.2921L75.7898 48.9988H80.6964C85.1765 48.9988 85.6298 49.0255 86.1365 49.2521ZM125.07 49.6121C125.63 51.5588 127.097 52.7722 129.35 53.1588C130.457 53.3455 130.457 53.3455 130.137 54.6655L129.99 55.3322L128.39 55.3055C124.99 55.2388 122.123 53.9188 120.897 51.8388L120.563 51.2655H117.337H114.11L113.377 51.9722C111.67 53.6255 108.99 54.7988 106.017 55.1988C104.07 55.4522 102.99 55.4655 102.99 55.2255C103.003 54.9322 103.35 53.4388 103.443 53.2922C103.497 53.1988 103.79 53.1322 104.097 53.1322C106.15 53.1322 108.897 51.4921 109.977 49.6255L110.35 48.9988L117.63 49.0255L124.91 49.0655L125.07 49.6121ZM39.443 49.6121C39.563 49.7188 39.6563 49.9055 39.6563 50.0121C39.6563 50.3321 39.283 50.9588 39.0563 51.0521C38.9363 51.0921 37.603 51.1321 36.0963 51.1321H33.363L33.003 51.4921C32.7096 51.7988 32.5763 52.1722 32.2696 53.5988C32.0696 54.5455 31.8696 55.4655 31.8296 55.6255C31.7896 55.7988 31.8696 56.0122 32.043 56.1855C32.3096 56.4522 32.4696 56.4655 35.0563 56.4655C37.683 56.4655 37.7896 56.4788 37.923 56.7455C38.1096 57.0922 38.003 57.5855 37.6563 57.9322C37.403 58.1855 37.203 58.1989 34.403 58.1989C31.5363 58.1989 31.4163 58.1855 30.9896 57.8922C29.8563 57.1322 29.7896 56.5855 30.4429 53.6655C30.923 51.5455 31.1496 51.0121 31.8163 50.3721C32.7363 49.4921 33.123 49.3988 36.3496 49.3988C38.803 49.3988 39.2696 49.4255 39.443 49.6121ZM42.2297 49.6655C42.4163 49.9455 42.3497 50.6921 41.9897 52.0922L41.8963 52.4655H44.283H46.683L46.8297 51.6255C47.1097 50.1321 47.243 49.8121 47.6563 49.5988C48.163 49.3321 48.4963 49.3455 48.763 49.6388C48.963 49.8655 48.9497 50.0121 48.5897 51.8121C48.363 52.8655 48.1897 53.7588 48.1897 53.7988C48.1897 53.8255 48.5097 53.5588 48.8963 53.1988L49.5897 52.5322L48.883 53.2788L48.163 54.0255L47.7763 55.8122C47.4563 57.2922 47.3363 57.6522 47.0563 57.8922C46.6297 58.2655 45.8563 58.3055 45.683 57.9589C45.5497 57.7055 45.5763 56.7055 45.723 56.4655C45.843 56.2788 46.1763 54.8922 46.1897 54.5588C46.1897 54.3455 45.9897 54.3322 43.8563 54.3322C41.5497 54.3322 41.523 54.3322 41.4563 54.6255C41.4163 54.7988 41.2696 55.4922 41.123 56.1855C40.9763 56.8655 40.7896 57.5455 40.7096 57.6788C40.5363 58.0122 40.163 58.1989 39.6696 58.1989C38.9896 58.1989 38.9496 57.9189 39.3896 55.8522C39.9363 53.1722 40.443 50.8788 40.603 50.3055C40.8163 49.5055 41.843 49.1055 42.2297 49.6655ZM51.9897 49.6655C52.2297 49.9321 52.2163 50.0388 51.443 53.6922C50.5363 58.0122 50.4297 58.2389 49.4697 58.1722C48.963 58.1322 48.923 58.1055 48.883 57.7055C48.8563 57.4788 49.083 56.1322 49.3897 54.7055C50.283 50.4255 50.3897 50.0388 50.7897 49.7055C51.2163 49.3321 51.6697 49.3188 51.9897 49.6655ZM60.7097 49.5988C61.2164 49.8521 61.7497 50.5055 61.8564 50.9721C61.923 51.3188 61.683 52.7055 60.9097 56.2522C60.5497 57.9322 60.363 58.1989 59.563 58.1989C59.0964 58.1989 58.8564 57.9855 58.8564 57.5588C58.8564 57.3855 59.0964 56.1322 59.3897 54.7722C59.9764 52.0388 60.0297 51.4655 59.7097 51.3455C59.3497 51.2121 55.7897 51.2521 55.523 51.3988C55.1097 51.6121 55.0297 51.8655 54.3897 54.8788C53.7364 57.9855 53.6297 58.1989 52.803 58.1989C52.2697 58.1989 52.0563 57.9989 52.0563 57.4922C52.0563 56.9055 53.123 52.0655 53.3764 51.4655C53.683 50.7588 54.363 50.1055 55.1897 49.7188C55.803 49.4255 56.0164 49.3988 58.0964 49.3988C59.803 49.3988 60.4297 49.4388 60.7097 49.5988ZM70.4564 49.6521C71.1231 49.9988 71.5231 50.6388 71.5231 51.3455C71.5231 51.6655 71.3631 52.6655 71.1764 53.5588C70.9097 54.7988 70.8564 55.2388 70.9764 55.4255C71.0831 55.5988 71.0831 55.6388 70.9497 55.5988C70.8564 55.5588 70.6964 55.7722 70.5497 56.1322C70.2031 56.9588 69.1497 57.8789 68.2297 58.1455C67.6697 58.3055 67.0297 58.3455 65.4164 58.3055C63.0697 58.2655 62.6697 58.1322 62.0831 57.2522C61.803 56.8655 61.7764 56.6788 61.8297 55.9988C61.8964 55.0655 62.1364 54.5188 62.7764 53.8922C63.4964 53.1722 64.0964 52.9588 65.5497 52.8922C67.6164 52.7988 68.2031 53.0388 68.0031 53.8788C67.8164 54.6122 67.5231 54.7322 65.8697 54.7322C64.6164 54.7322 64.3097 54.7722 64.0831 54.9588C63.7097 55.2788 63.6031 55.7988 63.8431 56.1322C64.0164 56.3722 64.2164 56.3988 65.8031 56.4522C67.9497 56.5055 68.5364 56.3722 68.7897 55.7588C69.0431 55.1188 69.4164 53.1588 69.3097 52.9855C69.2564 52.8922 69.2697 52.8655 69.3631 52.9055C69.4431 52.9722 69.5364 52.7455 69.5897 52.3188C69.7364 51.2121 69.7631 51.2255 66.3231 51.2121C63.5631 51.1988 63.3497 51.1855 63.1764 50.9455C62.9097 50.5588 62.9497 50.2788 63.3364 49.8121L63.6831 49.3988H66.8431C69.6564 49.3988 70.0431 49.4255 70.4564 49.6521ZM127.443 56.1322C127.403 56.3055 127.297 56.7722 127.203 57.1588L127.057 57.8655L115.95 57.9055C105.403 57.9322 104.843 57.9189 104.897 57.7055C104.937 57.5722 105.003 57.2388 105.057 56.9455C105.097 56.6655 105.19 56.2922 105.257 56.1188L105.39 55.7988H116.457H127.523L127.443 56.1322ZM44.8563 57.4655C44.5363 57.7989 44.243 58.0655 44.203 58.0655C44.163 58.0655 44.403 57.7989 44.723 57.4655C45.043 57.1322 45.3363 56.8655 45.3763 56.8655C45.4163 56.8655 45.1763 57.1322 44.8563 57.4655ZM24.5896 58.3322C24.9896 58.5455 25.0696 59.3055 24.7363 59.8389C24.3229 60.5055 23.9896 60.5989 21.9229 60.5989C20.8963 60.5989 20.0563 60.6255 20.0563 60.6522C20.0563 60.6922 19.6696 62.5455 19.1896 64.7989C18.6696 67.2656 18.2296 69.0122 18.0829 69.1989C17.8029 69.5856 17.1362 69.9323 16.6696 69.9323C16.2962 69.9323 15.7896 69.5189 15.7896 69.2256C15.7896 69.1189 16.1496 67.3722 16.5762 65.3189C17.0162 63.2789 17.4162 61.3722 17.4562 61.0922L17.5496 60.5989H15.6962C13.4962 60.5989 13.2562 60.5055 13.2562 59.6389C13.2562 59.2122 13.3496 59.0122 13.7096 58.6522L14.1629 58.1989H19.2562C22.4296 58.1989 24.4296 58.2522 24.5896 58.3322ZM42.9897 59.4389C42.9897 59.4655 42.8563 59.5989 42.6963 59.7455L42.3897 59.9989L42.643 59.6922C42.883 59.4122 42.9897 59.3322 42.9897 59.4389ZM109.123 59.6922C109.123 59.7189 108.737 61.5189 108.283 63.7056L107.43 67.6656L114.043 67.6389L120.657 67.5989L121.003 65.9856C121.203 65.0922 121.443 63.8789 121.55 63.2789L121.75 62.1989H118.257H114.75L114.67 62.6922C114.617 62.9722 114.55 63.3055 114.51 63.4255C114.443 63.6522 114.617 63.6656 116.91 63.6656H119.39V63.9589C119.377 64.1322 119.31 64.6256 119.217 65.0656L119.043 65.8656L114.403 65.9056C110.03 65.9322 109.777 65.9189 109.843 65.7056C109.937 65.3989 111.123 59.9055 111.123 59.7722C111.123 59.7055 114.603 59.6655 118.87 59.6655H126.617L126.537 60.0255C125.563 64.7589 124.963 67.3189 124.75 67.7456C124.43 68.3722 123.617 69.1456 122.897 69.5056C121.857 70.0389 121.297 70.0656 111.723 70.0656C102.99 70.0656 102.457 70.0523 102.457 69.8256C102.457 69.6256 103.643 63.9589 104.337 60.8922L104.617 59.6655H106.87C108.11 59.6655 109.123 59.6789 109.123 59.6922ZM30.1096 61.1322C30.3363 61.2122 30.4563 61.3589 30.4563 61.5455C30.4563 61.6922 30.1896 63.1189 29.8563 64.6922C29.0829 68.3322 28.9496 68.0656 31.6696 68.0656C34.283 68.0656 34.1896 68.1456 34.723 65.5322C35.5363 61.5855 35.6163 61.3722 36.2963 61.1189C36.4696 61.0522 36.723 61.0522 36.923 61.1322C37.3763 61.3055 37.363 61.6922 36.803 64.2922C36.5496 65.4522 36.3096 66.6389 36.2563 66.9322C36.123 67.7056 35.7496 68.3456 35.083 68.9589C34.1896 69.7856 34.043 69.8389 32.0296 69.9056C29.4029 69.9856 28.8163 69.8923 28.1496 69.2789C27.4563 68.6256 27.3763 67.9856 27.7763 66.1322C28.8296 61.2655 28.8029 61.3322 29.7496 61.0122C29.7629 60.9989 29.9229 61.0522 30.1096 61.1322ZM45.1097 61.1989C45.6563 61.4655 46.163 62.1322 46.2697 62.6655C46.3497 63.1322 45.243 68.7856 44.963 69.3056C44.8963 69.4389 44.6297 69.6389 44.363 69.7456C43.9497 69.9323 43.8697 69.9189 43.563 69.7323C43.1497 69.4656 43.163 69.3056 43.8563 66.1056C44.363 63.7589 44.403 63.2655 44.163 63.0255C44.0563 62.9189 43.3897 62.8655 42.043 62.8655C39.4296 62.8655 39.6163 62.6655 38.883 66.1722C38.563 67.6522 38.2563 69.0256 38.1896 69.2122C38.003 69.6789 37.2563 69.9856 36.7896 69.7723C36.3763 69.5856 36.363 69.2389 36.723 67.6656C37.0563 66.2389 37.0563 66.2389 36.6963 66.5456C36.483 66.7189 36.4963 66.6656 36.7496 66.3989C37.0296 66.0922 37.1763 65.6656 37.403 64.6122C37.8296 62.6255 38.6696 61.5322 40.0563 61.1589C40.8563 60.9322 44.6697 60.9722 45.1097 61.1989ZM49.323 61.1589C49.5497 61.2655 49.6563 61.4122 49.6563 61.6522C49.6563 61.8389 49.323 63.6122 48.9097 65.5989C48.0963 69.4789 48.003 69.7056 47.1763 69.8789C46.563 69.9989 46.2697 69.6523 46.3897 68.9456C46.563 67.8122 47.803 62.1189 47.9497 61.7589C48.0297 61.5589 48.2563 61.3055 48.443 61.1989C48.8697 60.9589 48.8963 60.9589 49.323 61.1589ZM57.9764 61.1455C58.643 61.3322 59.1897 61.8789 59.3897 62.5722C59.5364 63.0522 59.5097 63.3589 59.123 65.2256C58.643 67.6122 58.4164 68.2122 57.7897 68.8389C56.8697 69.7723 56.523 69.8656 53.8164 69.9056C51.1363 69.9589 50.803 69.8923 50.2563 69.2389C49.5897 68.4522 49.5763 68.0922 50.123 65.6656C50.683 63.1722 50.803 62.8522 51.483 62.1455C52.0563 61.5589 52.5364 61.2922 53.2964 61.1322C54.1364 60.9722 57.3764 60.9855 57.9764 61.1455ZM67.8697 61.2789C68.4564 61.5589 68.9897 62.3589 68.9897 62.9455C68.9897 63.5856 67.7497 69.0922 67.5364 69.3856C67.2031 69.8656 66.6564 70.0123 66.2564 69.7456C66.0697 69.6256 65.9231 69.4256 65.9231 69.2923C65.9231 69.1722 66.1897 67.7989 66.5231 66.2656C67.2831 62.6255 67.4031 62.8655 64.7497 62.8655C62.7764 62.8789 62.6164 62.9055 62.2297 63.3989C62.1497 63.5056 61.8297 64.7722 61.5364 66.1989C61.2297 67.6256 60.9097 68.9722 60.8297 69.1856C60.5097 69.9856 59.123 70.1056 59.123 69.3323C59.123 68.7456 60.2964 63.4255 60.5364 62.9722C60.963 62.1189 61.803 61.3989 62.7231 61.1189C62.9097 61.0655 64.0164 61.0122 65.1764 61.0122C67.0697 60.9989 67.3631 61.0255 67.8697 61.2789ZM26.2963 63.8256C26.5896 64.1189 26.4829 64.8256 26.1096 65.1189C25.7896 65.3722 25.5763 65.3989 23.6429 65.3989C21.9096 65.3989 21.5096 65.3589 21.3363 65.1856C21.2163 65.0789 21.1229 64.8922 21.1229 64.7856C21.1229 64.5056 21.4829 63.8389 21.6829 63.7589C22.0696 63.5989 26.1363 63.6656 26.2963 63.8256Z" fill="white"/>
<path d="M79.5898 57.6922C79.3898 58.6255 78.9898 60.5322 78.9898 60.6255C78.9898 60.6788 79.5231 60.7322 80.1764 60.7322H81.3498L81.6431 59.2922C81.8165 58.5055 81.9765 57.7588 82.0031 57.6255C82.0698 57.4255 81.9498 57.3988 80.8698 57.3988C79.7231 57.3988 79.6564 57.4122 79.5898 57.6922Z" fill="white"/>
<path d="M78.2831 63.8922C77.9098 65.5589 77.7498 66.4789 77.8298 66.5456C77.9231 66.6389 79.8298 66.3456 80.0564 66.1989C80.1631 66.1322 80.8431 63.4389 80.8564 63.0255C80.8564 63.0122 80.3231 62.9989 79.6698 62.9989H78.4831L78.2831 63.8922Z" fill="white"/>
<path d="M52.7363 63.1855C52.523 63.4122 52.323 64.0255 51.9897 65.4789C51.3763 68.1989 51.2697 68.0656 54.0297 68.0656C56.8297 68.0656 56.643 68.2389 57.283 64.9589C57.4964 63.7989 57.5497 63.3322 57.443 63.1589C57.3097 62.9589 57.003 62.9322 55.163 62.8922C53.0697 62.8655 53.043 62.8655 52.7363 63.1855Z" fill="white"/>
</svg>
