<svg width="185" height="48" viewBox="0 0 185 48" fill="none" xmlns="http://www.w3.org/2000/svg">
<path d="M17.4283 0.791555C13.5605 1.84696 10.6993 3.3773 7.89116 5.96304C3.33451 10.1847 1.3211 14.0369 0.261413 20.5804C-1.54006 32.2954 6.14268 43.5883 17.9582 46.7545C21.7731 47.7571 37.7214 47.7571 41.5892 46.7017C48.7421 44.802 55.0472 39.736 58.1733 33.3508C59.8158 29.9735 59.9218 29.5514 59.9218 23.7466C59.9218 17.9947 59.8158 17.467 58.2263 14.0897C55.1532 7.59892 49.007 2.63852 41.8012 0.791555C37.7214 -0.263852 21.4022 -0.263852 17.4283 0.791555ZM30.6215 2.63852C46.5697 7.54615 51.6033 27.5461 39.7877 39.3139C27.8663 51.1872 7.78519 46.0685 2.85765 29.9208C-2.17587 13.2981 13.8784 -2.53297 30.6215 2.63852Z" fill="white"/>
<path d="M16.5806 12.401C13.7724 14.3535 11.6001 17.5197 10.8583 20.897C9.63964 26.2268 11.971 31.926 16.5806 35.0922L18.594 36.4115L18.753 30.0791C18.8059 26.5962 18.8059 20.897 18.753 17.4142L18.594 11.0818L16.5806 12.401Z" fill="white"/>
<path d="M29.4558 23.43C29.4558 30.2902 29.6677 35.8838 29.8797 35.8838C31.2043 35.8838 34.7012 32.5593 36.0788 30.0263C37.3505 27.7044 37.6154 26.5435 37.6154 23.7466C37.6154 18.5752 35.443 14.7757 30.9394 11.8733L29.4558 10.9762V23.43Z" fill="white"/>
<path d="M155.082 6.54348C154.287 6.96564 154.022 7.3878 154.446 7.59889C154.817 7.86274 155.029 10.6068 155.029 16.0949C155.029 23.3772 154.923 24.2215 154.128 24.4326C153.598 24.5909 154.499 24.6965 156.088 24.7492C158.314 24.7492 158.791 24.6437 158.102 24.2215C157.254 23.7466 157.148 22.6912 157.148 14.7756C157.148 9.81524 156.989 5.80469 156.777 5.80469C156.512 5.85747 155.771 6.17409 155.082 6.54348Z" fill="white"/>
<path d="M172.567 6.54349C171.772 6.96565 171.507 7.38782 171.931 7.5989C172.302 7.86275 172.514 10.6596 172.514 16.3588C172.514 23.9577 172.62 24.7492 173.467 24.7492C173.944 24.802 175.216 24.9076 176.275 25.1186C180.09 25.7519 183.11 22.8495 183.11 18.5751C183.11 14.6701 179.878 12.3482 176.646 13.9841C175.746 14.4063 174.898 14.7757 174.792 14.7757C174.739 14.7757 174.633 12.7704 174.633 10.2902C174.633 7.80998 174.474 5.80471 174.262 5.80471C173.997 5.85748 173.255 6.1741 172.567 6.54349ZM179.614 16.4115C182.051 19.2611 181.15 23.5883 177.971 24.5382C177.176 24.7492 176.487 24.5382 175.746 23.7994C174.262 22.3218 174.103 16.2005 175.587 15.3561C177.123 14.459 178.183 14.7229 179.614 16.4115Z" fill="white"/>
<path d="M85.8312 7.6517C85.4603 8.60156 85.9901 9.49866 86.9438 9.49866C88.0565 9.49866 88.4274 8.49602 87.7386 7.6517C86.8908 6.64906 86.202 6.64906 85.8312 7.6517Z" fill="white"/>
<path d="M143.266 7.38785C138.974 8.65434 136.749 12.0844 137.12 16.9393C137.385 20.686 138.551 22.4802 141.836 24.1688C143.69 25.1714 144.75 25.3825 147.134 25.1714C151.373 24.802 152.38 24.1688 152.327 21.7414C152.327 20.211 152.221 20 151.85 20.8443C151.638 21.4247 150.843 22.4802 150.101 23.1662C148.936 24.2216 148.353 24.3799 146.286 24.1688C142.207 23.6939 139.663 20.4221 139.663 15.5672C139.663 11.0818 142.577 7.91555 146.71 7.91555C149.359 7.91555 150.737 8.70711 151.585 10.7124L152.327 12.401L152.38 10.2374C152.38 8.07386 152.327 8.02109 150.048 7.44062C147.346 6.7546 145.333 6.7546 143.266 7.38785Z" fill="white"/>
<path d="M66.9687 8.23216C68.0814 8.97094 68.1344 9.3931 68.1344 16.0949C68.1344 22.7968 68.0814 23.2189 66.9687 23.9577C65.8561 24.7493 66.121 24.802 71.0485 24.802C75.2343 24.802 76.7178 24.591 78.5193 23.7466C82.2282 21.9524 83.9767 18.0474 82.917 13.9841C81.6984 9.34033 78.1484 7.4406 70.7836 7.38783C66.121 7.38783 65.8561 7.4406 66.9687 8.23216ZM76.7708 9.28756C80.1088 11.029 81.3805 16.5699 79.3671 20.5804C78.2014 23.0078 74.1746 24.802 72.1082 23.8522C70.7836 23.2189 70.7836 23.2189 70.7836 15.9366C70.7836 11.9261 70.9426 8.44324 71.1545 8.23216C71.6843 7.70445 74.8634 8.3377 76.7708 9.28756Z" fill="white"/>
<path d="M85.8841 13.9313C84.8774 14.3535 84.5595 14.7229 84.9834 14.9867C85.4073 15.2506 85.6192 16.8865 85.6192 19.7888C85.6192 23.5355 85.4603 24.2216 84.7185 24.4326C84.1886 24.5909 85.0364 24.6965 86.6259 24.7493C89.0632 24.802 89.3811 24.6965 88.6393 24.116C87.9505 23.6411 87.7386 22.4274 87.6326 18.364L87.4737 13.2981L85.8841 13.9313Z" fill="white"/>
<path d="M91.9773 14.0369C90.3878 14.7229 90.2289 14.934 91.0766 15.3561C91.8184 15.7783 91.9773 16.6226 91.9773 19.7888C91.9773 22.955 91.8184 23.7994 91.0766 24.2215C90.3348 24.6437 90.8117 24.7492 93.037 24.7492C94.6266 24.6965 95.5273 24.5909 95.0504 24.4326C94.2557 24.2215 94.0967 23.5355 94.0967 20.0527C94.0967 15.62 94.5736 14.7756 97.2228 14.7756C98.7593 14.7756 99.3952 16.3588 99.3952 20.2638C99.3952 22.955 99.1832 23.7994 98.4944 24.2215C97.7526 24.6437 98.2295 24.7492 100.455 24.7492C102.044 24.6965 102.945 24.5909 102.468 24.4326C101.673 24.2215 101.515 23.5355 101.462 20.4221C101.409 18.3113 101.25 16.0421 101.038 15.3034C100.508 13.4564 98.3885 12.8231 96.2161 13.9313C94.0967 14.934 94.2027 14.934 93.9908 14.0369C93.8318 13.3509 93.5669 13.4036 91.9773 14.0369Z" fill="white"/>
<path d="M106.018 13.9314C105.117 14.3008 104.111 15.2506 103.74 16.0422C102.945 17.8364 102.892 21.1609 103.687 22.9023C104.853 25.4353 108.879 25.963 111.211 23.905C112.535 22.6912 112.323 21.9525 110.946 22.9023C110.31 23.3773 109.25 23.7466 108.667 23.7466C107.131 23.7466 105.223 21.5831 105.064 19.7361L104.959 18.2058L108.561 18.0475C111.846 17.8891 112.111 17.8364 112.111 16.6754C112.111 14.1952 108.773 12.7176 106.018 13.9314ZM109.356 14.8812C110.681 16.2005 110.045 16.8865 107.608 16.8865C105.012 16.8865 104.8 16.6754 106.124 15.1979C107.131 14.0897 108.455 13.9841 109.356 14.8812Z" fill="white"/>
<path d="M118.258 14.3007C117.145 15.1978 116.88 15.2506 116.88 14.5646C116.88 13.5619 115.979 13.5092 114.284 14.459C113.277 15.0395 113.171 15.1978 113.913 15.4617C114.602 15.7255 114.761 16.6226 114.761 19.7888C114.761 23.43 114.655 23.7994 113.595 24.2743C112.694 24.5909 113.383 24.6965 116.085 24.6965C118.152 24.6437 119.158 24.5382 118.364 24.4326C116.88 24.2215 116.88 24.1688 116.88 20.3693C116.88 16.1477 117.41 15.1978 119.529 15.6727C121.225 15.9894 122.019 15.0923 121.119 13.9841C120.271 12.9287 119.953 12.9815 118.258 14.3007Z" fill="white"/>
<path d="M124.351 13.8258C121.49 15.3562 121.543 18.1002 124.404 19.7361C127.424 21.4775 128.06 22.1636 127.424 23.2717C126.682 24.6965 124.563 24.5382 123.291 22.9023L122.178 21.4775V22.8496C122.178 24.591 123.821 25.5409 126.258 25.1715C128.801 24.7493 129.596 23.905 129.596 21.7942C129.596 20.3166 129.278 19.8417 127.954 19.1029C127 18.6279 125.675 17.6781 124.881 17.0448C123.609 15.9894 123.556 15.8311 124.404 14.9868C125.516 13.8258 127.636 14.3536 128.431 15.9367C128.96 17.0976 129.013 17.0448 129.013 15.409C129.066 14.4063 128.801 13.7203 128.431 13.7203C128.06 13.7203 127.265 13.562 126.682 13.4565C126.099 13.2981 125.04 13.4565 124.351 13.8258Z" fill="white"/>
<path d="M159.268 14.248C159.268 14.5118 159.532 14.7757 159.797 14.7757C160.115 14.7757 160.327 16.5699 160.327 19.1556C160.327 22.7968 160.486 23.7466 161.281 24.4326C162.447 25.5408 163.877 25.5408 165.626 24.5382C167.321 23.5883 167.745 23.5883 167.745 24.5382C167.745 25.1714 168.116 25.277 169.229 25.0131C170.977 24.591 172.037 23.7466 170.765 23.7466C169.97 23.7466 169.864 23.1134 169.864 18.7335C169.864 13.8786 169.811 13.7203 168.699 13.773C168.01 13.773 167.003 13.9841 166.42 14.1952C165.414 14.6174 165.414 14.6174 166.579 14.9868C167.639 15.3562 167.745 15.7255 167.745 18.839C167.745 22.5329 167.056 23.6939 164.831 23.7466C162.87 23.7466 162.447 22.6912 162.447 18.1002V13.7203H160.857C160.009 13.7203 159.268 13.9314 159.268 14.248Z" fill="white"/>
<path d="M66.015 30.7123C66.015 30.9234 66.2799 31.1345 66.5448 31.1345C67.3396 31.1345 67.2336 38.6806 66.4389 39.4722C65.962 39.9471 66.7568 40.1054 69.9888 40.1054C73.2209 40.1054 74.0156 39.9471 73.5388 39.4722C73.1679 39.1028 72.903 37.5197 72.903 35.8838L72.956 32.9814L76.241 36.5698C78.0425 38.5223 79.685 40.1054 79.9499 40.1054C80.1618 40.1054 80.3208 38.1002 80.3208 35.62C80.3208 32.9814 80.5327 31.1345 80.8506 31.1345C81.1685 31.1345 81.3805 30.9234 81.3805 30.7123C81.3805 30.4485 80.6917 30.2374 79.7909 30.2374C78.9432 30.2374 78.2014 30.4485 78.2014 30.7123C78.2014 30.9234 78.4663 31.1345 78.7312 31.1345C79.0492 31.1345 79.2611 32.401 79.2611 33.8785L79.2081 36.6754L76.347 33.5092C74.3335 31.24 73.1149 30.3429 72.1612 30.3429C71.4194 30.2902 70.7836 30.5012 70.7836 30.7123C70.7836 30.9234 71.0485 31.1345 71.3134 31.1345C71.6843 31.1345 71.8433 32.6648 71.7373 35.1978C71.5784 39.2083 71.5254 39.3139 70.2537 39.3139C68.9821 39.3139 68.9291 39.2083 68.7702 35.1978C68.6642 32.6648 68.8232 31.1345 69.1941 31.1345C69.459 31.1345 69.7239 30.9234 69.7239 30.7123C69.7239 30.5012 68.8762 30.2902 67.8695 30.2902C66.8627 30.2902 66.015 30.5012 66.015 30.7123Z" fill="white"/>
<path d="M81.9103 31.24C81.9103 32.1371 82.0693 32.2427 82.5461 31.7677C82.917 31.3983 83.7118 31.1345 84.4006 31.1345C85.5662 31.1345 85.6192 31.2928 85.6192 35.3033C85.6192 38.1529 85.4073 39.5777 84.9834 39.7361C84.6125 39.8944 85.5132 40.0527 86.9438 40.0527C89.0102 40.0527 89.3811 39.9471 88.6923 39.525C87.8975 39.1028 87.7386 38.2585 87.7386 35.0923C87.7386 31.2928 87.7916 31.1345 88.9572 31.1345C89.646 31.1345 90.4408 31.3983 90.8117 31.7677C91.2885 32.2427 91.4475 32.1371 91.4475 31.24C91.4475 30.1319 91.2355 30.0791 86.6789 30.0791C82.1222 30.0791 81.9103 30.1319 81.9103 31.24Z" fill="white"/>
<path d="M92.5072 30.8179C93.249 31.5566 93.196 38.6806 92.4012 39.4722C91.9244 39.9471 92.6132 40.1054 95.5803 40.1054C97.6997 40.1054 99.3952 39.8944 99.3952 39.6305C99.3952 39.3667 99.5541 38.6806 99.7131 38.1529C99.978 37.2558 99.978 37.2558 99.2362 38.1002C98.8123 38.6279 97.7526 39.05 96.7989 39.05C95.2624 39.05 95.1564 38.9445 95.1564 37.2031C95.1564 35.7255 95.3683 35.3561 96.2161 35.3561C96.7989 35.3561 97.2758 35.5672 97.2758 35.8838C97.2758 36.1477 97.4877 36.4115 97.6997 36.4115C97.9646 36.4115 98.1765 35.6727 98.2295 34.8284C98.2295 33.9313 98.0176 33.2453 97.7526 33.2453C97.4877 33.2453 97.2758 33.4564 97.2758 33.773C97.2758 34.0369 96.7989 34.3007 96.2161 34.3007C95.3683 34.3007 95.1564 33.9313 95.1564 32.7176C95.1564 31.3983 95.3683 31.1345 96.481 31.1345C97.1698 31.1345 98.0176 31.5566 98.2825 32.0316C98.7593 32.8759 98.8123 32.8231 98.8653 31.6094C98.8653 30.2902 98.7593 30.2902 95.4213 30.2902C93.09 30.2902 92.1363 30.4485 92.5072 30.8179Z" fill="white"/>
<path d="M100.985 30.8179C101.726 31.5566 101.673 38.6806 100.879 39.4722C100.402 39.9471 100.773 40.1054 102.627 40.1054C104.058 40.1054 104.694 39.9471 104.27 39.6305C103.846 39.3667 103.634 38.4168 103.74 37.1503L103.899 35.0923L105.488 37.5725L107.078 40.1054H110.416H113.754L112.959 38.9445C112.429 38.2585 112.111 36.6754 112.111 35.0923L112.164 32.4537L115.714 36.306C117.675 38.4168 119.423 40.1054 119.688 40.1054C119.9 40.1054 120.059 38.1529 120.059 35.7255C120.059 33.2981 120.324 31.0817 120.589 30.8179C120.96 30.4485 120.642 30.2374 119.529 30.2374C118.681 30.2374 117.94 30.4485 117.94 30.7123C117.94 30.9234 118.205 31.1345 118.47 31.1345C118.787 31.1345 118.999 32.401 118.999 33.8785L118.946 36.6754L116.085 33.5092C114.019 31.2928 112.8 30.3429 111.846 30.3429C110.469 30.2902 110.098 30.8179 111.052 31.3983C111.37 31.5566 111.582 33.4036 111.582 35.4089C111.582 40.1054 110.628 40.7387 108.032 37.7308C106.442 35.8838 106.336 35.62 107.078 34.8284C108.032 33.773 108.138 31.3456 107.237 30.8179C106.23 30.1846 100.349 30.1846 100.985 30.8179ZM105.912 32.2954C106.336 32.9287 106.283 33.4036 105.806 33.9841C104.588 35.4617 103.634 34.9867 103.634 32.9287C103.634 31.4511 103.846 31.0817 104.482 31.24C104.959 31.3456 105.647 31.7677 105.912 32.2954Z" fill="white"/>
<path d="M125.569 30.5012C125.252 30.7123 124.457 32.5065 123.768 34.5646C123.132 36.5698 122.231 38.6806 121.755 39.1556C121.013 40.0527 121.066 40.1054 122.708 40.1054C124.139 40.1054 124.298 39.9999 123.821 39.3667C122.867 38.2057 123.98 36.4115 125.622 36.4115C126.576 36.4115 127 36.7809 127.265 37.678C127.424 38.4168 127.424 39.2611 127.212 39.525C127 39.8944 127.583 40.1054 128.854 40.1054C130.338 40.1054 130.656 39.9471 130.285 39.4194C129.967 39.1028 129.066 36.8337 128.325 34.4062C126.841 30.0791 126.629 29.7625 125.569 30.5012ZM126.364 35.1978C126.417 35.9366 125.04 36.1477 124.669 35.4617C124.51 35.2506 124.669 34.5118 124.934 33.773C125.463 32.5065 125.516 32.5065 125.887 33.5091C126.152 34.0896 126.364 34.8812 126.364 35.1978Z" fill="white"/>
<path d="M129.967 30.4485C129.755 30.6068 129.596 31.1345 129.596 31.6094C129.596 32.2427 129.755 32.2427 130.232 31.7677C130.603 31.3983 131.557 31.1345 132.351 31.1345C133.835 31.1345 133.835 31.1345 133.835 34.7756C133.835 37.4142 133.623 38.6806 132.987 39.2611C132.245 40.0527 132.404 40.1054 134.736 40.1054C136.696 40.0527 137.067 39.9471 136.378 39.525C135.583 39.1028 135.425 38.2585 135.425 35.0923C135.425 31.2928 135.478 31.1345 136.643 31.1345C137.332 31.1345 138.127 31.3983 138.498 31.7677C138.974 32.2427 139.133 32.1371 139.133 31.24C139.133 30.1318 138.921 30.0791 134.736 30.0791C132.298 30.0791 130.126 30.2374 129.967 30.4485Z" fill="white"/>
<path d="M140.193 30.8178C140.988 31.6094 140.882 39.4194 140.087 39.736C139.716 39.8943 140.458 40.0527 141.783 40.0527C143.584 40.1054 143.955 39.9471 143.478 39.4722C142.736 38.7334 142.63 31.5566 143.372 30.8178C143.69 30.5012 143.16 30.3429 141.783 30.3429C140.405 30.3429 139.875 30.5012 140.193 30.8178Z" fill="white"/>
<path d="M145.968 31.6094C143.478 34.0896 143.955 37.889 146.922 39.4722C150.419 41.3719 154.499 39.1555 154.499 35.4088C154.499 32.612 154.128 31.7677 152.327 30.8706C149.942 29.6041 147.717 29.868 145.968 31.6094ZM152.274 33.298C153.492 35.6199 151.903 39.5777 149.677 39.5777C148.247 39.5777 146.551 37.0447 146.551 34.8811C146.551 30.554 150.26 29.5513 152.274 33.298Z" fill="white"/>
<path d="M155.771 31.0817C156.936 32.401 156.936 37.8363 155.718 39.1556C154.923 40.0527 154.976 40.1054 156.936 40.1054C158.579 40.0527 158.844 39.9471 158.102 39.525C157.36 39.1028 157.148 38.3113 157.148 35.7783V32.5065L160.857 36.4643L164.513 40.3693L164.566 36.2004C164.566 33.2981 164.778 31.7677 165.361 31.1345C166.049 30.3957 165.944 30.2902 164.301 30.2902C162.658 30.2902 162.553 30.3957 163.241 31.1345C163.665 31.6094 164.036 32.9814 164.036 34.1952C164.036 36.4115 163.4 37.0448 162.605 35.6727C161.281 33.4036 157.996 30.5012 156.512 30.2902C154.976 30.1319 154.923 30.1846 155.771 31.0817Z" fill="white"/>
<path d="M169.97 30.9762C169.705 31.5039 169.07 33.2453 168.54 34.8284C168.063 36.4115 167.268 38.2585 166.897 38.8917C166.155 40.0527 166.208 40.1054 167.851 40.1054C169.07 40.1054 169.388 39.9471 168.858 39.6305C168.381 39.3139 168.275 38.6806 168.487 37.7835C168.964 35.8838 171.242 35.8838 172.09 37.7835C172.62 38.8917 172.567 39.2083 171.931 39.6305C171.454 39.8944 173.414 40.1054 177.335 40.1054C183.534 40.1054 183.534 40.1054 183.746 38.7862C183.905 38.0474 183.799 37.4669 183.587 37.4669C183.322 37.4669 183.11 37.7308 183.11 37.9946C183.11 38.6806 180.938 39.525 180.09 39.2083C179.243 38.8917 179.137 31.6094 179.984 30.7651C180.355 30.3957 179.931 30.2374 178.395 30.2902C176.858 30.2902 176.434 30.5012 176.805 30.9234C177.123 31.2928 177.282 33.2981 177.176 35.4617C177.017 38.8917 176.911 39.3139 175.958 39.3139C175.11 39.3139 174.58 38.4168 173.308 34.8812C171.666 30.2902 170.818 29.2875 169.97 30.9762ZM171.083 34.3007C171.242 34.9867 171.083 35.5144 170.606 35.7255C169.493 36.1477 169.229 35.6727 169.652 34.0896C170.023 32.5593 170.659 32.6648 171.083 34.3007Z" fill="white"/>
<path d="M182.952 31.2928C183.163 32.2426 183.11 32.2954 182.581 31.6622C182.051 30.9761 181.998 30.9761 182.157 31.6622C182.316 32.0843 182.952 32.4009 183.693 32.4009C185.336 32.4009 185.495 30.5012 183.799 30.2901C182.899 30.1318 182.74 30.2901 182.952 31.2928ZM184.541 31.7677C184.382 32.1899 184.223 32.0315 184.223 31.4511C184.17 30.8706 184.329 30.554 184.488 30.7651C184.647 30.9234 184.7 31.3983 184.541 31.7677Z" fill="white"/>
</svg>
