<svg width="120" height="56" viewBox="0 0 120 56" fill="none" xmlns="http://www.w3.org/2000/svg">
<path d="M38.4615 0.621574C34.9059 1.55494 31.9281 5.1995 31.9281 8.71072C31.9281 10.9775 33.5281 14.0442 35.617 15.6887C36.9059 16.711 37.8392 17.0665 39.8393 17.1999C41.217 17.2888 42.9059 17.1554 43.6171 16.8888C44.6393 16.4888 44.8171 16.1776 44.8171 14.622C44.8171 12.6664 44.5949 12.4886 43.3948 13.5553C42.9504 13.9998 41.8393 14.3109 40.8615 14.3109C37.7059 14.3109 35.4392 12.0442 35.3948 8.9774C35.3503 6.62177 36.4614 4.66615 38.3281 3.77723C40.2837 2.84387 41.1282 2.88831 43.1726 3.95501L44.8171 4.84393V3.0661C44.8171 1.86606 44.5949 1.19937 44.0615 0.932695C42.5504 0.177115 40.5948 0.0437774 38.4615 0.621574Z" fill="white"/>
<path d="M50.6393 1.11047C47.2615 2.79942 45.9282 5.02171 45.9282 8.84405C45.9282 11.3775 46.106 12.0886 47.1726 13.5998C49.306 16.711 53.4394 18.311 56.6838 17.2888C60.6394 15.9998 63.0395 12.8442 63.0395 8.84405C63.0395 4.79948 60.5506 1.51049 56.595 0.443785C54.0172 -0.267349 53.2616 -0.178457 50.6393 1.11047Z" fill="white"/>
<path d="M0.150001 0.932689C0.0166668 1.24381 -0.027778 5.02171 0.0166668 9.28851L0.150001 17.0665L3.52781 17.0221C10.1056 16.8888 13.4835 14.0442 13.4835 8.57738C13.4835 6.13286 13.3057 5.59951 12.1057 4.08835C10.1945 1.68827 7.9723 0.71046 3.83892 0.48823C1.12779 0.310447 0.327781 0.443785 0.150001 0.932689ZM8.63897 5.02171C9.92787 6.31064 10.1501 6.84399 10.1501 8.71072C10.1501 9.9552 9.83898 11.2886 9.43898 11.8664C8.55008 13.1553 6.50562 14.1776 4.81671 14.1776H3.48337V8.84406V3.51055H5.3056C6.77228 3.51055 7.39451 3.77723 8.63897 5.02171Z" fill="white"/>
<path d="M15.3501 0.666004C15.1724 0.843788 15.039 4.5328 15.039 8.88849V16.7554L16.639 16.9332C17.4835 17.0221 18.2391 17.0221 18.328 16.8887C18.3724 16.7554 18.4168 13.022 18.3724 8.62182L18.328 0.621559L16.9946 0.488221C16.2835 0.399329 15.5279 0.488221 15.3501 0.666004Z" fill="white"/>
<path d="M21.8835 1.9105C20.7724 3.02165 20.3724 3.82167 20.3724 4.93282C20.3724 7.02178 21.1724 7.95514 24.4169 9.51074C26.728 10.5774 27.3058 11.0663 27.3947 12.0442C27.6614 14.4442 24.5058 15.1998 22.328 13.2442C21.4391 12.3997 21.3946 12.3997 20.4613 13.422L19.4835 14.4442L20.4613 15.3776C22.0613 16.8443 23.2613 17.2888 25.4391 17.2888C29.3058 17.2888 31.9281 13.5998 30.4614 10.0885C29.9281 8.8885 29.2169 8.26626 26.8614 7.15511C23.8836 5.73284 23.2613 4.79948 24.4613 3.59944C25.2169 2.84386 27.2614 2.93275 27.9725 3.77723C28.5058 4.44391 28.6392 4.39947 29.3503 3.51055C29.7947 2.9772 30.1503 2.35496 30.1503 2.13273C30.1503 1.37715 27.4836 0.39934 25.4391 0.39934C23.7058 0.39934 23.1724 0.621569 21.8835 1.9105Z" fill="white"/>
<path d="M62.5062 0.621577C62.3728 0.754914 63.7951 4.53281 65.6617 9.06629C70.1062 19.8666 69.8396 19.8666 74.3285 9.28852C76.1952 4.88838 77.7063 1.11048 77.7063 0.843806C77.7063 0.532685 77.0396 0.399347 76.1063 0.488239L74.4618 0.621577L72.4174 5.82174C71.3062 8.71073 70.2396 11.0664 70.1062 11.0664C69.9729 11.0664 68.9062 8.66628 67.7507 5.73285C65.6617 0.443793 65.6173 0.399347 64.1951 0.399347C63.3951 0.399347 62.6395 0.488239 62.5062 0.621577Z" fill="white"/>
<path d="M79.4841 8.57738V16.7999L83.9286 16.9332L88.373 17.0665V15.5998V14.1776H85.4841H82.5952V11.9553V9.73297H85.4841H88.373V8.3996V7.06622H85.4841H82.5952V5.28839V3.51055H85.4841H88.373V1.95495V0.39934H83.9286H79.4841V8.57738Z" fill="white"/>
<path d="M90.9064 0.710462C90.7286 0.843799 90.5953 4.57725 90.5953 8.93295V16.8443H92.1508H93.7064V13.7331C93.7064 11.9997 93.8842 10.6219 94.1064 10.6219C94.2842 10.6219 95.3953 11.9997 96.5064 13.6887C98.462 16.6665 98.5953 16.7554 100.551 16.9332C101.662 17.0221 102.595 17.0221 102.595 16.9332C102.595 16.8888 101.484 15.3332 100.151 13.5553C98.8176 11.7775 97.7065 10.2219 97.7065 10.0885C97.7065 9.95521 98.1953 9.68853 98.8176 9.55519C100.329 9.15518 101.44 6.93289 101.129 4.75504C100.818 2.57719 99.9731 1.55493 97.7509 0.932691C95.9287 0.354895 91.3508 0.221557 90.9064 0.710462ZM97.3953 3.91057C98.0176 4.53281 97.9287 6.48843 97.262 7.28845C96.9509 7.64402 96.0175 7.95514 95.2175 7.95514C93.7064 7.95514 93.7064 7.95514 93.7064 5.82174C93.7064 4.6217 93.8398 3.51055 94.0175 3.33277C94.4175 2.93276 96.862 3.37721 97.3953 3.91057Z" fill="white"/>
<path d="M101.929 1.51049C101.929 2.31052 102.151 2.53275 102.818 2.44385C103.307 2.35496 103.707 1.95495 103.707 1.51049C103.707 1.06603 103.307 0.666019 102.818 0.577127C102.151 0.488235 101.929 0.710465 101.929 1.51049ZM103.351 1.82161C103.218 2.17718 103.084 2.04384 103.084 1.55494C103.04 1.06603 103.173 0.799357 103.307 0.97714C103.44 1.11048 103.484 1.51049 103.351 1.82161Z" fill="white"/>
<path d="M116.596 25.2446C113.44 27.4669 102.595 33.1559 95.3064 36.4005C78.7285 43.7785 58.2394 50.1343 38.5948 54.0011L32.1503 55.29L75.0396 55.4233C98.6398 55.4678 118.196 55.4233 118.507 55.29C118.907 55.1567 119.04 51.5565 119.04 39.5117C119.04 30.9781 118.907 23.9557 118.729 23.9557C118.507 24.0001 117.573 24.5779 116.596 25.2446Z" fill="white"/>
</svg>
