<svg width="123" height="123" viewBox="0 0 123 123" fill="none" xmlns="http://www.w3.org/2000/svg">
<mask id="path-1-inside-1_61_3" fill="white">
<path d="M57.1832 0.12358C49.2099 0.656914 41.1298 2.85691 33.9698 6.44358C12.6498 17.1236 -0.630282 39.2036 0.0230527 62.8436C0.28972 72.2302 2.35639 80.4569 6.5164 88.7769C14.8098 105.324 30.3431 117.377 48.4498 121.284C50.3699 121.71 53.0365 122.11 55.7165 122.404C58.1032 122.67 65.3432 122.617 67.7166 122.337C73.9166 121.59 78.7566 120.39 83.8366 118.364C104.743 110.004 119.383 91.0969 122.17 68.8436C124.517 50.1902 118.037 31.3502 104.65 17.9769C96.61 9.95024 86.85 4.45691 75.6366 1.65691C70.2766 0.310247 63.1699 -0.27642 57.1832 0.12358ZM58.7832 20.6702V36.1502L56.6232 36.0569C50.6765 35.8169 45.2898 35.0969 39.5565 33.7769C37.7832 33.3636 34.6498 32.5369 34.5565 32.4569C34.5298 32.4302 34.8765 31.4436 35.3165 30.2569C38.1298 22.5902 41.8898 16.3369 46.3298 11.9502C48.7832 9.52358 51.0632 7.89691 53.5565 6.77691C55.2365 6.03025 57.5432 5.31025 58.6899 5.19025C58.7432 5.17691 58.7832 12.1502 58.7832 20.6702ZM67.0366 6.04358C70.5966 7.33691 73.3432 9.19025 76.5166 12.4569C80.7299 16.7902 84.3033 22.8436 86.9966 30.1769C87.5833 31.7636 87.7833 32.4702 87.6766 32.5236C87.01 32.8836 80.6633 34.3502 77.3833 34.8969C73.7966 35.4969 69.9299 35.8836 65.9566 36.0569L63.8499 36.1502V20.6836V5.20358L64.9566 5.44358C65.5566 5.57691 66.4899 5.84358 67.0366 6.04358ZM80.0499 8.24358C87.1966 10.7902 93.85 14.8436 99.65 20.2036C101.45 21.8569 104.183 24.8036 104.183 25.0836C104.183 25.3236 101.677 26.8036 99.05 28.1236C96.9833 29.1636 92.9433 30.9102 92.6233 30.9102C92.5566 30.9102 92.49 30.8302 92.45 30.7369C91.9033 29.0969 90.3566 25.2436 89.5166 23.4302C86.7433 17.4969 83.6099 12.7636 79.7966 8.79025C79.2766 8.24358 78.9699 7.85691 79.1166 7.91025C79.2633 7.96358 79.6899 8.11025 80.0499 8.24358ZM42.1565 9.23025C38.8098 12.7236 35.9031 17.0702 33.2365 22.5769C32.1165 24.8836 30.6365 28.4569 30.0631 30.1902L29.8365 30.8836L28.0098 30.1502C25.6098 29.1902 22.0631 27.4436 19.9564 26.1636L18.2498 25.1369L19.0898 24.2036C22.9831 19.7636 27.7298 15.8302 32.7565 12.8569C34.9298 11.5636 38.4232 9.85691 40.6498 8.99025C41.7165 8.57691 42.7032 8.17691 42.8498 8.11025C43.4098 7.85691 43.3165 8.01691 42.1565 9.23025ZM17.1164 30.1102C19.3431 31.4836 23.1698 33.4169 26.0498 34.6436C27.3031 35.1636 28.3298 35.6169 28.3431 35.6302C28.3698 35.6436 28.2631 36.0836 28.1165 36.5902C27.7431 37.8569 26.7298 42.6836 26.3298 45.1102C25.6631 49.0702 25.2498 53.3769 25.0898 58.1369L25.0098 60.7769H15.0098H5.00973L5.10307 58.7369C5.54307 48.7502 8.72974 38.9502 14.2898 30.4702C14.8098 29.6836 15.2631 29.0436 15.3031 29.0436C15.3431 29.0436 16.1698 29.5236 17.1164 30.1102ZM108.397 30.6169C109.917 32.9369 110.823 34.5502 112.05 37.0969C115.343 43.8969 117.17 51.1636 117.53 58.8036L117.623 60.7769H107.463H97.3166V60.2036C97.3033 56.8169 96.85 50.9102 96.3166 47.1902C95.7566 43.3902 94.49 37.1102 94.0366 35.9102C93.9833 35.7902 94.0766 35.6702 94.2766 35.5902C99.1967 33.5636 102.677 31.8702 105.517 30.1102C106.477 29.5236 107.277 29.0436 107.317 29.0436C107.357 29.0436 107.837 29.7502 108.397 30.6169ZM37.1832 38.3102C41.0365 39.2702 43.5032 39.7502 46.9965 40.2302C50.7165 40.7369 53.6899 41.0169 56.5299 41.1236L58.7832 41.2169V51.0036V60.7769H44.4498H30.1165V59.2702C30.1165 54.0436 31.1165 45.7369 32.3831 40.2569C32.7565 38.6569 32.9965 37.7102 33.1165 37.3502C33.1565 37.2169 33.3031 37.2302 33.7431 37.3902C34.0631 37.4969 35.6098 37.9102 37.1832 38.3102ZM89.7566 39.4036C91.21 45.6036 92.25 53.9902 92.25 59.5902V60.7769H78.0499H63.8499V51.0036V41.2169L65.9566 41.1236C73.1032 40.8169 80.3166 39.7102 86.8766 37.9236C88.0366 37.6036 89.05 37.3369 89.13 37.3236C89.21 37.3236 89.49 38.2569 89.7566 39.4036ZM25.3031 68.4036C25.4898 71.4169 25.7298 73.6036 26.1965 76.6436C26.5831 79.1902 27.5831 84.0836 28.0498 85.7902C28.3698 86.9502 28.3698 87.1769 28.0765 87.1769C27.7698 87.1769 23.6765 89.0036 21.3164 90.1902C19.9564 90.8836 18.0764 91.9236 17.1164 92.5102C16.1698 93.0969 15.3564 93.5769 15.3164 93.5769C15.2764 93.5769 14.8764 93.0169 14.4231 92.3369C11.1164 87.4036 8.42308 81.3902 6.9164 75.6436C6.06307 72.3902 5.7564 70.6569 5.24973 66.4036L5.18307 65.8436H15.1564H25.1298L25.3031 68.4036ZM58.7832 73.6436V81.4436H57.9299C54.9432 81.4436 47.3298 82.2436 43.1832 82.9902C40.7698 83.4302 34.3165 84.9902 33.2898 85.3769C33.1298 85.4436 33.0098 85.1236 32.6765 83.7502C31.9565 80.8302 31.1965 76.5636 30.7831 73.1769C30.5431 71.0969 30.2498 67.6569 30.2498 66.7369V65.8436H44.5165H58.7832V73.6436ZM92.1166 66.3369C92.1033 68.7902 91.2233 76.1502 90.5033 79.8436C90.2366 81.2302 89.3166 85.2036 89.25 85.2836C89.2366 85.3102 88.09 85.0169 86.7033 84.6569C79.9166 82.8569 72.9699 81.7902 65.9566 81.4969L63.8499 81.4036V73.6169V65.8436H77.9833H92.1166V66.3369ZM117.383 66.3369C117.357 66.6169 117.25 67.4169 117.17 68.1102C116.223 76.4036 112.943 85.2836 108.21 92.3369C107.757 93.0169 107.357 93.5769 107.317 93.5769C107.277 93.5769 106.477 93.0969 105.517 92.5102C102.717 90.7769 97.5033 88.2436 94.7166 87.2302C94.3566 87.1102 94.0366 86.9902 94.01 86.9636C93.9833 86.9502 94.1566 86.2436 94.3833 85.3769C95.61 80.6169 96.69 73.7636 97.0633 68.2036L97.2233 65.8436H107.343H117.45L117.383 66.3369ZM58.7832 101.977C58.7832 110.484 58.7432 117.444 58.6899 117.444C58.6232 117.444 58.0765 117.324 57.4499 117.19C53.1565 116.23 48.8232 113.524 45.1698 109.51C41.2498 105.204 37.9165 99.4436 35.3698 92.5636C34.8898 91.2702 34.5165 90.1902 34.5431 90.1769C34.6498 90.0702 38.3298 89.1236 40.4498 88.6436C44.6765 87.7102 48.7165 87.1102 53.1165 86.7769C55.8899 86.5636 56.0765 86.5636 57.4899 86.5369L58.7832 86.5102V101.977ZM67.6099 86.6436C70.5166 86.8436 73.4899 87.1369 75.6499 87.4569C78.7966 87.9102 84.4099 89.0969 86.9433 89.8569L87.8366 90.1236L87.2633 91.7502C86.45 94.0302 86.0766 94.9502 85.0233 97.2436C80.3033 107.537 73.7699 114.43 66.4899 116.75C65.8099 116.977 64.9299 117.217 64.5566 117.284L63.8499 117.404V101.964V86.5102H64.7032C65.1832 86.5102 66.4766 86.5769 67.6099 86.6436ZM94.8633 92.5902C98.5033 94.0969 104.183 97.1236 104.183 97.5369C104.183 97.8036 101.397 100.804 99.65 102.417C95.9566 105.83 92.3833 108.404 87.7166 111.004C86.37 111.764 83.1833 113.19 81.0766 113.99C79.9299 114.417 78.9699 114.777 78.9299 114.777C78.9033 114.777 79.3433 114.284 79.9299 113.67C84.5699 108.884 88.61 102.164 91.5833 94.2702C92.1166 92.8702 92.5966 91.7102 92.65 91.7102C92.7033 91.7102 93.7033 92.1102 94.8633 92.5902ZM30.0231 92.3102C30.4498 93.6836 32.0498 97.5769 32.9565 99.4969C35.6898 105.284 38.7032 109.83 42.3032 113.564C42.9032 114.177 43.2632 114.644 43.1165 114.59C35.4631 111.87 29.3031 108.177 23.2231 102.644C21.4631 101.03 18.4498 97.8169 18.4498 97.5369C18.4498 97.3236 20.9164 95.8702 23.3831 94.6169C25.7565 93.4169 29.4098 91.8302 29.7031 91.8836C29.8098 91.8969 29.9565 92.0836 30.0231 92.3102Z"/>
</mask>
<path d="M57.1832 0.12358C49.2099 0.656914 41.1298 2.85691 33.9698 6.44358C12.6498 17.1236 -0.630282 39.2036 0.0230527 62.8436C0.28972 72.2302 2.35639 80.4569 6.5164 88.7769C14.8098 105.324 30.3431 117.377 48.4498 121.284C50.3699 121.71 53.0365 122.11 55.7165 122.404C58.1032 122.67 65.3432 122.617 67.7166 122.337C73.9166 121.59 78.7566 120.39 83.8366 118.364C104.743 110.004 119.383 91.0969 122.17 68.8436C124.517 50.1902 118.037 31.3502 104.65 17.9769C96.61 9.95024 86.85 4.45691 75.6366 1.65691C70.2766 0.310247 63.1699 -0.27642 57.1832 0.12358ZM58.7832 20.6702V36.1502L56.6232 36.0569C50.6765 35.8169 45.2898 35.0969 39.5565 33.7769C37.7832 33.3636 34.6498 32.5369 34.5565 32.4569C34.5298 32.4302 34.8765 31.4436 35.3165 30.2569C38.1298 22.5902 41.8898 16.3369 46.3298 11.9502C48.7832 9.52358 51.0632 7.89691 53.5565 6.77691C55.2365 6.03025 57.5432 5.31025 58.6899 5.19025C58.7432 5.17691 58.7832 12.1502 58.7832 20.6702ZM67.0366 6.04358C70.5966 7.33691 73.3432 9.19025 76.5166 12.4569C80.7299 16.7902 84.3033 22.8436 86.9966 30.1769C87.5833 31.7636 87.7833 32.4702 87.6766 32.5236C87.01 32.8836 80.6633 34.3502 77.3833 34.8969C73.7966 35.4969 69.9299 35.8836 65.9566 36.0569L63.8499 36.1502V20.6836V5.20358L64.9566 5.44358C65.5566 5.57691 66.4899 5.84358 67.0366 6.04358ZM80.0499 8.24358C87.1966 10.7902 93.85 14.8436 99.65 20.2036C101.45 21.8569 104.183 24.8036 104.183 25.0836C104.183 25.3236 101.677 26.8036 99.05 28.1236C96.9833 29.1636 92.9433 30.9102 92.6233 30.9102C92.5566 30.9102 92.49 30.8302 92.45 30.7369C91.9033 29.0969 90.3566 25.2436 89.5166 23.4302C86.7433 17.4969 83.6099 12.7636 79.7966 8.79025C79.2766 8.24358 78.9699 7.85691 79.1166 7.91025C79.2633 7.96358 79.6899 8.11025 80.0499 8.24358ZM42.1565 9.23025C38.8098 12.7236 35.9031 17.0702 33.2365 22.5769C32.1165 24.8836 30.6365 28.4569 30.0631 30.1902L29.8365 30.8836L28.0098 30.1502C25.6098 29.1902 22.0631 27.4436 19.9564 26.1636L18.2498 25.1369L19.0898 24.2036C22.9831 19.7636 27.7298 15.8302 32.7565 12.8569C34.9298 11.5636 38.4232 9.85691 40.6498 8.99025C41.7165 8.57691 42.7032 8.17691 42.8498 8.11025C43.4098 7.85691 43.3165 8.01691 42.1565 9.23025ZM17.1164 30.1102C19.3431 31.4836 23.1698 33.4169 26.0498 34.6436C27.3031 35.1636 28.3298 35.6169 28.3431 35.6302C28.3698 35.6436 28.2631 36.0836 28.1165 36.5902C27.7431 37.8569 26.7298 42.6836 26.3298 45.1102C25.6631 49.0702 25.2498 53.3769 25.0898 58.1369L25.0098 60.7769H15.0098H5.00973L5.10307 58.7369C5.54307 48.7502 8.72974 38.9502 14.2898 30.4702C14.8098 29.6836 15.2631 29.0436 15.3031 29.0436C15.3431 29.0436 16.1698 29.5236 17.1164 30.1102ZM108.397 30.6169C109.917 32.9369 110.823 34.5502 112.05 37.0969C115.343 43.8969 117.17 51.1636 117.53 58.8036L117.623 60.7769H107.463H97.3166V60.2036C97.3033 56.8169 96.85 50.9102 96.3166 47.1902C95.7566 43.3902 94.49 37.1102 94.0366 35.9102C93.9833 35.7902 94.0766 35.6702 94.2766 35.5902C99.1967 33.5636 102.677 31.8702 105.517 30.1102C106.477 29.5236 107.277 29.0436 107.317 29.0436C107.357 29.0436 107.837 29.7502 108.397 30.6169ZM37.1832 38.3102C41.0365 39.2702 43.5032 39.7502 46.9965 40.2302C50.7165 40.7369 53.6899 41.0169 56.5299 41.1236L58.7832 41.2169V51.0036V60.7769H44.4498H30.1165V59.2702C30.1165 54.0436 31.1165 45.7369 32.3831 40.2569C32.7565 38.6569 32.9965 37.7102 33.1165 37.3502C33.1565 37.2169 33.3031 37.2302 33.7431 37.3902C34.0631 37.4969 35.6098 37.9102 37.1832 38.3102ZM89.7566 39.4036C91.21 45.6036 92.25 53.9902 92.25 59.5902V60.7769H78.0499H63.8499V51.0036V41.2169L65.9566 41.1236C73.1032 40.8169 80.3166 39.7102 86.8766 37.9236C88.0366 37.6036 89.05 37.3369 89.13 37.3236C89.21 37.3236 89.49 38.2569 89.7566 39.4036ZM25.3031 68.4036C25.4898 71.4169 25.7298 73.6036 26.1965 76.6436C26.5831 79.1902 27.5831 84.0836 28.0498 85.7902C28.3698 86.9502 28.3698 87.1769 28.0765 87.1769C27.7698 87.1769 23.6765 89.0036 21.3164 90.1902C19.9564 90.8836 18.0764 91.9236 17.1164 92.5102C16.1698 93.0969 15.3564 93.5769 15.3164 93.5769C15.2764 93.5769 14.8764 93.0169 14.4231 92.3369C11.1164 87.4036 8.42308 81.3902 6.9164 75.6436C6.06307 72.3902 5.7564 70.6569 5.24973 66.4036L5.18307 65.8436H15.1564H25.1298L25.3031 68.4036ZM58.7832 73.6436V81.4436H57.9299C54.9432 81.4436 47.3298 82.2436 43.1832 82.9902C40.7698 83.4302 34.3165 84.9902 33.2898 85.3769C33.1298 85.4436 33.0098 85.1236 32.6765 83.7502C31.9565 80.8302 31.1965 76.5636 30.7831 73.1769C30.5431 71.0969 30.2498 67.6569 30.2498 66.7369V65.8436H44.5165H58.7832V73.6436ZM92.1166 66.3369C92.1033 68.7902 91.2233 76.1502 90.5033 79.8436C90.2366 81.2302 89.3166 85.2036 89.25 85.2836C89.2366 85.3102 88.09 85.0169 86.7033 84.6569C79.9166 82.8569 72.9699 81.7902 65.9566 81.4969L63.8499 81.4036V73.6169V65.8436H77.9833H92.1166V66.3369ZM117.383 66.3369C117.357 66.6169 117.25 67.4169 117.17 68.1102C116.223 76.4036 112.943 85.2836 108.21 92.3369C107.757 93.0169 107.357 93.5769 107.317 93.5769C107.277 93.5769 106.477 93.0969 105.517 92.5102C102.717 90.7769 97.5033 88.2436 94.7166 87.2302C94.3566 87.1102 94.0366 86.9902 94.01 86.9636C93.9833 86.9502 94.1566 86.2436 94.3833 85.3769C95.61 80.6169 96.69 73.7636 97.0633 68.2036L97.2233 65.8436H107.343H117.45L117.383 66.3369ZM58.7832 101.977C58.7832 110.484 58.7432 117.444 58.6899 117.444C58.6232 117.444 58.0765 117.324 57.4499 117.19C53.1565 116.23 48.8232 113.524 45.1698 109.51C41.2498 105.204 37.9165 99.4436 35.3698 92.5636C34.8898 91.2702 34.5165 90.1902 34.5431 90.1769C34.6498 90.0702 38.3298 89.1236 40.4498 88.6436C44.6765 87.7102 48.7165 87.1102 53.1165 86.7769C55.8899 86.5636 56.0765 86.5636 57.4899 86.5369L58.7832 86.5102V101.977ZM67.6099 86.6436C70.5166 86.8436 73.4899 87.1369 75.6499 87.4569C78.7966 87.9102 84.4099 89.0969 86.9433 89.8569L87.8366 90.1236L87.2633 91.7502C86.45 94.0302 86.0766 94.9502 85.0233 97.2436C80.3033 107.537 73.7699 114.43 66.4899 116.75C65.8099 116.977 64.9299 117.217 64.5566 117.284L63.8499 117.404V101.964V86.5102H64.7032C65.1832 86.5102 66.4766 86.5769 67.6099 86.6436ZM94.8633 92.5902C98.5033 94.0969 104.183 97.1236 104.183 97.5369C104.183 97.8036 101.397 100.804 99.65 102.417C95.9566 105.83 92.3833 108.404 87.7166 111.004C86.37 111.764 83.1833 113.19 81.0766 113.99C79.9299 114.417 78.9699 114.777 78.9299 114.777C78.9033 114.777 79.3433 114.284 79.9299 113.67C84.5699 108.884 88.61 102.164 91.5833 94.2702C92.1166 92.8702 92.5966 91.7102 92.65 91.7102C92.7033 91.7102 93.7033 92.1102 94.8633 92.5902ZM30.0231 92.3102C30.4498 93.6836 32.0498 97.5769 32.9565 99.4969C35.6898 105.284 38.7032 109.83 42.3032 113.564C42.9032 114.177 43.2632 114.644 43.1165 114.59C35.4631 111.87 29.3031 108.177 23.2231 102.644C21.4631 101.03 18.4498 97.8169 18.4498 97.5369C18.4498 97.3236 20.9164 95.8702 23.3831 94.6169C25.7565 93.4169 29.4098 91.8302 29.7031 91.8836C29.8098 91.8969 29.9565 92.0836 30.0231 92.3102Z" fill="white" stroke="white" stroke-width="2" mask="url(#path-1-inside-1_61_3)"/>
</svg>
