<svg width="114" height="68" viewBox="0 0 114 68" fill="none" xmlns="http://www.w3.org/2000/svg">
<path d="M10.7184 0.206497C6.16921 0.844696 2.52982 3.49137 0.687934 7.48953L0.110957 8.7284L0.0443828 38.3298L0 67.95H50.8627C94.7573 67.95 101.97 67.9125 103.301 67.6685C107.14 66.9927 110.558 64.7402 112.244 61.7557C112.777 60.8359 113.243 59.6346 113.376 58.9401C113.531 58.1329 113.62 47.978 113.62 28.8506V1.52588e-05L62.7573 0.0187836C34.7739 0.0375595 11.362 0.11264 10.7184 0.206497ZM35.6838 32.0416L35.6172 56.2183L35.0402 57.2695C34.2192 58.7524 33.043 59.766 31.3343 60.4793L29.8474 61.0987L18.5964 61.155L7.32316 61.2113L7.36755 37.0346L7.43412 12.858L8.03329 11.788C9.0319 9.98604 11.0957 8.52192 13.2483 8.09019C13.7143 7.99634 18.9515 7.92126 24.9209 7.90249L35.7282 7.88372L35.6838 32.0416ZM70.0805 32.1355L70.0139 56.406L69.4369 57.4384C68.7934 58.5647 67.8169 59.5032 66.4855 60.1977C64.688 61.1738 64.3995 61.1926 52.6602 61.1926H41.7198V52.3703V43.5481L43.7836 45.2938C47.5562 48.5035 51.6172 49.7612 58.2303 49.7612C62.2247 49.7424 67.24 48.9728 67.24 48.3722C67.24 47.9967 66.1526 43.3041 66.0416 43.229C65.9972 43.1727 65.0652 43.3228 63.9778 43.5669C61.2039 44.1675 57.3204 44.1863 55.1456 43.6044C51.4841 42.6283 49.2649 40.7137 48.1332 37.5415C47.7337 36.4152 47.645 35.6832 47.6228 33.8812C47.6228 31.9102 47.7115 31.441 48.2441 30.1458C49.2649 27.6305 50.9071 25.9599 53.4813 24.8712C56.2996 23.6699 61.1373 23.5573 64.7767 24.6084C65.4425 24.8149 65.9972 24.9463 66.0416 24.9275C66.1082 24.8524 67.6838 19.6717 67.6838 19.5216C67.6838 19.3902 66.0638 18.9021 64.688 18.6018C62.9126 18.2076 58.8516 18.0199 56.4771 18.2076C50.4411 18.6957 45.8253 20.7792 42.3412 24.5897L41.742 25.2466L41.7198 19.8782C41.7198 16.781 41.8308 14.0593 41.964 13.4211C42.3856 11.4502 43.5839 9.92973 45.5146 8.89734C47.3121 7.94003 47.6671 7.92126 59.3176 7.90249L70.1248 7.88372L70.0805 32.1355ZM105.587 32.0416L105.52 56.2183L104.943 57.2695C104.122 58.7524 102.946 59.766 101.237 60.4793L99.7504 61.0987L88.4993 61.155L77.2261 61.2113V55.2235V49.2544L78.6242 49.3858C79.3787 49.4609 81.6422 49.5735 83.6616 49.6486C91.7837 49.9301 97.7088 48.8602 100.793 46.5702C104.921 43.4918 105.187 37.9356 101.326 34.876C100.816 34.4818 99.6394 33.8248 98.663 33.4119L96.9321 32.6986L98.1748 32.173C99.6838 31.5536 101.437 30.127 102.058 29.0008C103.035 27.2363 103.035 24.8524 102.058 23.1255C100.971 21.2297 98.2414 19.6342 94.7573 18.8646C92.0722 18.2827 81.4425 18.2827 77.914 18.8834L77.1817 19.0148L77.2705 15.9364C77.3371 13.0832 77.3814 12.7829 77.9362 11.788C78.9348 9.98604 80.9986 8.52192 83.1512 8.09019C83.6172 7.99634 88.8544 7.92126 94.8239 7.90249L105.631 7.88372L105.587 32.0416ZM92.4272 24.0453C93.9806 24.7023 94.5798 25.622 94.491 27.1425C94.4244 28.0435 94.2691 28.4377 93.8031 28.9632C92.7157 30.1833 90.4744 30.784 87.0791 30.784H85.215V27.2363C85.215 24.5709 85.2816 23.6511 85.5035 23.576C85.6366 23.5197 87.0125 23.501 88.5437 23.5197C91.0513 23.5573 91.4508 23.6136 92.4272 24.0453ZM91.0735 36.0586C93.6255 36.5091 95.423 38.1046 95.423 39.9816C95.423 43.0413 92.9376 44.4866 87.6117 44.4866H85.215V40.2069C85.215 37.8418 85.2594 35.8709 85.326 35.8145C85.5257 35.6456 89.6977 35.8333 91.0735 36.0586Z" fill="white"/>
<path d="M21.4813 29.4137C21.4147 39.4561 21.3703 40.3383 20.9931 41.2393C20.0388 43.4918 17.9306 44.3365 14.2913 43.9423C13.337 43.8296 12.3384 43.6982 12.0943 43.6419C11.6727 43.5293 11.6283 43.6982 11.2067 46.3449L10.7406 49.1605L12.3162 49.4796C14.2247 49.855 18.8849 49.8926 20.749 49.5547C25.0985 48.7851 27.8502 46.5139 29.1151 42.6659C29.5811 41.2581 29.6033 40.8451 29.6921 29.883L29.7587 18.583H25.6533H21.5478L21.4813 29.4137Z" fill="white"/>
</svg>
