<svg width="114" height="68" viewBox="0 0 114 68" fill="none" xmlns="http://www.w3.org/2000/svg">
<path d="M29.008 0.319565C19.8527 1.76402 12.2085 6.36408 6.5642 13.8753C-1.48002 24.5421 -2.19111 39.7423 4.76425 51.4313C6.83086 54.898 10.0974 58.5425 13.3862 61.0314C19.2083 65.4315 25.3414 67.6315 32.6301 67.9204C38.43 68.1426 43.4965 67.1204 48.6519 64.6759C50.5852 63.7425 54.3629 61.3203 55.9628 59.9425L56.8072 59.2536L57.8516 60.1425C62.0293 63.6314 67.2958 66.1426 72.9845 67.3648C75.0067 67.8093 76.0067 67.8759 79.6955 67.8759C83.3842 67.8759 84.3842 67.787 86.3619 67.3648C93.1173 65.8759 98.806 62.8314 103.473 58.2091C109.517 52.1869 112.761 45.2534 113.495 36.72C114.961 19.6754 103.428 4.25294 86.4731 0.652901C82.2509 -0.236 76.5622 -0.191559 72.1401 0.786232C67.1847 1.89736 61.696 4.58628 57.8961 7.80854L56.8517 8.67522L54.3406 6.7863C50.6963 4.05294 45.8964 1.78625 41.8076 0.852898C37.7855 -0.0359955 32.6968 -0.258224 29.008 0.319565ZM61.0293 13.3642C61.5182 14.0086 62.1404 14.8753 62.3848 15.2531L62.8515 15.9864H57.0294C52.4518 15.9864 51.2518 15.9198 51.3852 15.6975C51.474 15.5642 52.0296 14.6975 52.6296 13.8086L53.7184 12.2086H56.9183H60.1182L61.0293 13.3642ZM65.4959 21.1643C65.8514 22.0087 66.1403 22.7865 66.1403 22.8976C66.1403 23.0087 62.2071 23.0976 56.8072 23.0976H47.4742L48.363 21.3198L49.2519 19.542L57.0517 19.5865L64.8514 19.6531L65.4959 21.1643ZM24.0082 27.4754C24.0748 28.4088 24.1415 30.6755 24.1415 32.52C24.1415 34.3422 24.2304 35.7644 24.3193 35.6311C24.4304 35.52 25.4526 33.2533 26.6081 30.6088L28.6969 25.7643H31.9857C33.7857 25.7643 35.2523 25.7865 35.2523 25.831C35.2523 25.8532 34.5634 29.4755 33.6968 33.8755C32.8523 38.2756 32.1413 41.9423 32.1413 42.0312C32.1413 42.1423 31.2524 42.209 30.1413 42.209C28.6969 42.209 28.1414 42.1423 28.1414 41.9201C28.1414 41.7867 28.6302 39.0534 29.2524 35.8978C29.8524 32.72 30.3191 30.0977 30.2969 30.0755C30.2746 30.031 29.0525 32.7644 27.5858 36.12L24.9192 42.209H23.0971H21.2527V41.4756C21.2305 39.92 20.6305 30.4088 20.5416 30.3199C20.4971 30.2755 19.9638 32.8977 19.3416 36.1644L18.2083 42.0978L16.4084 42.1645C15.4084 42.209 14.5862 42.1423 14.5862 42.0534C14.5862 41.8534 17.4083 27.0532 17.5861 26.2532C17.6972 25.7865 17.7861 25.7643 20.786 25.7643H23.8526L24.0082 27.4754ZM77.3844 26.1421C77.34 26.3643 77.2289 26.8977 77.14 27.3199C77.0511 27.7421 76.94 28.2755 76.8955 28.4755C76.7844 28.8088 76.94 28.8755 77.8066 28.8755H78.851L78.6955 29.9199C78.4066 31.9644 78.4288 31.9644 77.2955 32.0311L76.2511 32.0977L75.7622 34.6533C74.9845 38.72 75.0734 39.0978 76.6955 39.0978H77.6289L77.3622 40.4756C77.14 41.7867 77.0733 41.8978 76.3622 42.1423C74.7401 42.6979 72.5846 42.3867 71.7179 41.4534C70.8513 40.52 70.8957 39.4756 72.1401 32.7644C72.7623 29.3421 73.3179 26.3643 73.3845 26.1421C73.4956 25.831 73.7845 25.7643 75.4956 25.7643C77.2955 25.7643 77.4955 25.8088 77.3844 26.1421ZM44.5853 29.1644C45.9631 29.831 46.5853 30.831 46.5853 32.4088C46.5853 33.0977 46.2742 35.5867 45.8742 37.92L45.1409 42.209H43.5409H41.9188V41.5423V40.8978L41.1188 41.4312C40.1632 42.0756 38.1633 42.5201 37.0522 42.3201C35.2523 41.9867 34.319 40.9423 34.1856 39.0756C34.0745 37.4533 34.4301 36.3867 35.4078 35.4311C36.5856 34.2755 38.2966 33.72 40.741 33.6977L42.8076 33.6533V32.9422C42.8076 32.1422 42.4965 31.8977 41.2521 31.6755C40.4966 31.5422 37.4078 31.8311 36.4967 32.1199C36.1189 32.2533 36.0967 32.1644 36.23 31.1866C36.5411 29.0977 36.4522 29.1866 38.2077 28.8977C41.541 28.3866 43.0521 28.4532 44.5853 29.1644ZM57.1405 29.0755C58.4294 29.631 59.2072 30.5421 59.6071 31.9422C59.9405 33.0977 59.9405 33.6755 59.5405 35.92L59.4294 36.6533H55.4517C53.274 36.6533 51.4518 36.72 51.4074 36.8089C51.3407 36.92 51.4074 37.3422 51.5629 37.7645C51.8963 38.8089 52.9184 39.2978 54.7851 39.32C55.5628 39.32 56.785 39.1645 57.5183 38.9645C58.2516 38.7867 58.8961 38.6534 58.9183 38.6978C59.0072 38.7867 58.4072 41.809 58.2738 41.9201C58.2516 41.9645 57.1628 42.1201 55.8739 42.2534C53.8518 42.4756 53.3407 42.4756 52.0074 42.1423C49.0074 41.4089 47.6964 39.8534 47.5186 36.8311C47.2964 32.8311 49.4963 29.5421 52.9629 28.6532C54.0962 28.3866 56.0072 28.5643 57.1405 29.0755ZM70.7624 28.7644C70.8068 28.8088 70.6957 29.4755 70.5624 30.2977L70.2957 31.7644H68.2069C66.4514 31.7644 66.0736 31.8311 65.6959 32.2088C65.0514 32.8533 65.3403 33.2533 67.0069 34.0755C68.918 35.0533 69.6069 35.72 69.918 36.8978C70.6513 39.6089 69.118 41.6534 65.9625 42.209C64.607 42.4312 61.7182 42.3645 60.1182 42.0756L59.5405 41.9645L59.8516 40.4978C60.0071 39.6756 60.1849 38.9867 60.2071 38.9645C60.2294 38.92 60.6516 38.9867 61.1404 39.0978C62.6071 39.4534 65.0737 39.3645 65.6514 38.9645C66.5625 38.3422 66.207 37.7422 64.3403 36.7644C63.407 36.2756 62.4737 35.7422 62.2737 35.5644C61.096 34.5644 60.8738 32.3422 61.7849 30.7644C62.7848 29.0755 64.8737 28.4088 68.6958 28.6088C69.8069 28.6755 70.7179 28.7421 70.7624 28.7644ZM97.4505 28.7866C99.0505 29.2532 100.428 30.5421 101.05 32.1644C101.428 33.1866 101.495 33.7644 101.406 35.0978C101.206 38.3645 99.9393 40.52 97.5172 41.6978C96.3617 42.2534 96.0283 42.3201 93.6951 42.3201C91.4951 42.3201 91.0063 42.2534 90.2507 41.8312C89.0285 41.1867 88.0508 40.0756 87.5841 38.8311C87.0508 37.4089 87.2064 34.32 87.8508 32.8533C89.3841 29.4088 93.584 27.631 97.4505 28.7866ZM88.5174 28.831C88.7397 28.9644 88.6285 29.4532 88.0952 30.831L87.4064 32.6533H86.4286C84.6953 32.6533 84.0509 33.8533 83.0287 38.9867C82.7843 40.32 82.4954 41.6089 82.4509 41.809C82.3398 42.1645 82.051 42.209 80.3177 42.209C78.3622 42.209 78.3177 42.209 78.4288 41.6978C78.4955 41.4312 79.0066 38.6978 79.5844 35.6533C80.1399 32.5866 80.651 29.831 80.7177 29.4755C80.851 28.8755 80.851 28.8755 82.6287 28.8755H84.4287L84.2731 29.8088L84.1176 30.7644L84.962 29.9421C85.4286 29.4977 86.0508 29.031 86.3619 28.8977C87.0286 28.631 88.1619 28.6088 88.5174 28.831ZM102.45 40.3423C102.939 40.8312 102.895 41.6978 102.361 41.9867C101.228 42.5867 100.25 41.1867 101.25 40.3867C101.85 39.8978 102.006 39.8978 102.45 40.3423ZM63.8959 50.2091L62.9404 51.9869H56.8294H50.6963L49.7408 50.2091L48.7852 48.4313H56.8072H64.8292L63.8959 50.2091ZM58.6516 57.3647L56.8072 59.2092L55.5628 57.9869C54.8962 57.3202 54.1184 56.498 53.8962 56.1425L53.4518 55.5424H56.9628H60.4738L58.6516 57.3647Z" fill="white"/>
<path d="M39.0299 36.6089C37.0744 37.5645 37.9633 39.9645 40.0744 39.4534C40.8966 39.2312 41.8299 38.1645 42.0965 37.0978L42.3187 36.2089H41.0521C40.3632 36.2311 39.4744 36.3867 39.0299 36.6089Z" fill="white"/>
<path d="M53.2073 31.8977C52.6295 32.2089 51.9185 33.2311 51.9185 33.7644C51.9185 33.8978 52.7407 33.9867 54.1628 33.9867C56.385 33.9867 56.4072 33.9867 56.2739 33.4755C56.2072 33.2089 56.1406 32.8755 56.1406 32.72C56.1406 32.2089 55.185 31.5422 54.4962 31.5422C54.1184 31.5644 53.5406 31.6977 53.2073 31.8977Z" fill="white"/>
<path d="M93.6506 32.12C92.0951 32.9422 91.2062 36.2978 92.0729 37.9867C92.8729 39.5423 94.4506 39.609 95.8506 38.1423C96.7394 37.2089 96.9394 36.7867 97.1172 35.3645C97.295 33.9867 96.9172 32.5422 96.2728 32.0755C95.695 31.6755 94.4284 31.6977 93.6506 32.12Z" fill="white"/>
<path d="M101.184 40.5645C100.895 40.8756 101.028 41.5201 101.45 41.7423C101.984 42.0312 102.673 41.5645 102.561 40.9645C102.473 40.5423 101.495 40.2534 101.184 40.5645ZM102.139 41.0534C102.139 41.2756 101.984 41.4756 101.806 41.4756C101.628 41.4756 101.473 41.2756 101.473 41.0534C101.473 40.8312 101.628 40.6534 101.806 40.6534C101.984 40.6534 102.139 40.8312 102.139 41.0534Z" fill="white"/>
<path d="M109.65 52.0091C109.006 52.3646 109.139 53.498 109.828 53.8091C110.561 54.1424 111.117 53.8313 111.206 52.9647C111.317 52.0091 110.495 51.498 109.65 52.0091ZM110.561 52.9202C110.539 53.3869 110.517 53.3869 110.406 52.9869L110.295 52.5424L110.117 52.9869C109.961 53.4091 109.939 53.4091 109.939 52.9202C109.917 52.6313 110.05 52.4313 110.25 52.4313C110.45 52.4313 110.583 52.6313 110.561 52.9202Z" fill="white"/>
</svg>
