<svg width="193" height="59" viewBox="0 0 193 59" fill="none" xmlns="http://www.w3.org/2000/svg">
<path d="M0 29.4028V58.8057H8.46667H16.9333L16.96 41.3244L17 23.8564L17.76 23.8163L18.5067 23.7762L18.8533 24.8855C19.04 25.5003 19.28 26.3289 19.3867 26.7299C19.4933 27.1308 19.8667 28.4272 20.2 29.6033C20.5467 30.7794 20.8667 31.9155 20.9333 32.1427C21 32.3565 21.1067 32.7574 21.1733 33.0114C21.24 33.2653 21.6267 34.6152 22.04 36.0185C22.44 37.4084 22.8 38.6781 22.84 38.8251C22.88 38.9721 23.1867 40.0547 23.5333 41.2308C23.8667 42.4069 24.2 43.5429 24.2667 43.7701C24.9733 46.3362 28.1067 57.2955 28.36 58.0974L28.5733 58.8057H34.4133H40.2533L40.52 57.8969C40.88 56.6272 41.2533 55.3442 42.0133 52.6578C42.3733 51.3748 42.72 50.1719 42.7867 49.9848C42.8533 49.7977 42.9733 49.4101 43.0533 49.1161C44.5333 43.9172 45.7733 39.5468 45.8667 39.2261C46.0667 38.6247 46.8933 35.7245 47.12 34.8825C47.7733 32.4501 50.1333 24.2974 50.2667 24.0569C50.4 23.8163 50.52 23.7762 51.1067 23.8163L51.8 23.8564L51.84 41.3244L51.8667 58.8057H60.3333H68.8V29.4028V3.8743e-06H60.3067C51.1333 3.8743e-06 50.64 0.0400987 48.6667 0.72171C46.08 1.63053 44.2133 3.32787 43.0667 5.78702C42.7867 6.38844 42.32 7.83185 42.0133 9.02133C41.7067 10.1974 41.2933 11.8146 41.08 12.6299C40.72 13.9797 40.36 15.3429 39.5333 18.5104C38.44 22.7204 37.36 26.8101 36.9067 28.5341C36.6933 29.336 36.3467 30.6725 36.1333 31.4878C35.4267 34.2276 35.2933 34.682 35.16 34.8424C34.96 35.1097 33.7733 35.0696 33.6133 34.7756C33.4933 34.535 32.9333 32.5035 31.5333 27.064C31.28 26.1017 30.9867 24.9657 30.8667 24.5246C30.6 23.5223 30.1867 21.9719 29.4267 19.045C29.1067 17.7887 28.5867 15.8107 28.28 14.6346C27.96 13.4585 27.5467 11.828 27.3333 11.0261C26.28 6.96313 26.2267 6.78939 25.6933 5.61327C24.52 3.07394 21.9467 1.0291 19.1333 0.387587C18.7733 0.307397 18.2533 0.187113 17.9867 0.120288C17.72 0.0534636 13.56 3.8743e-06 8.74667 3.8743e-06H0V29.4028Z" fill="white"/>
<path d="M76.4 29.4028V58.8057H84.4533H92.5067L93.6933 58.4181C95.32 57.8835 96.56 57.1484 97.5867 56.1327C99.2267 54.5156 99.3333 54.3017 103.467 44.2379C104.507 41.6986 105.467 39.3865 105.6 39.0924C105.733 38.7984 106.333 37.355 106.933 35.8848C107.547 34.4147 108.333 32.4901 108.693 31.6081C109.067 30.726 109.48 29.6969 109.627 29.336C109.773 28.9618 110 28.4272 110.133 28.1332C110.267 27.8392 110.68 26.8101 111.067 25.8611C111.453 24.8989 111.827 24.0435 111.907 23.95C111.973 23.8564 112.333 23.7896 112.747 23.7896H113.467L113.493 41.2575L113.533 58.7389H122H130.467V29.4028V0.0668285L122.413 0.0267337C113.84 3.8743e-06 114.12 -0.026726 112.427 0.654885C110.813 1.2964 109.253 2.5928 108.227 4.1164C107.627 5.01185 107.293 5.66673 106.6 7.35072C106.4 7.83185 106.133 8.46 106 8.75403C105.867 9.04806 105.307 10.3979 104.733 11.7611C103.653 14.3539 103.067 15.7439 102.667 16.6393C102.533 16.9334 102.067 18.0427 101.627 19.1119C101.187 20.181 100.453 21.9185 100 22.9877C98.4133 26.7031 96.6267 30.9398 96.3333 31.6749C96.1733 32.0758 95.7867 32.998 95.4667 33.7197L94.8933 35.0295L94.1467 34.9894L93.4 34.9493L93.36 17.468L93.3333 3.8743e-06H84.8667H76.4V29.4028Z" fill="white"/>
<path d="M135.973 0.0802018C135.933 0.120297 135.947 0.3475 136 0.574704C136.053 0.815273 136.2 1.45679 136.333 2.00475C136.6 3.2076 136.693 3.51499 137.347 5.35935C139.533 11.5473 143.947 16.9868 149.427 20.2612C152.92 22.3462 156.467 23.5089 160.64 23.9232C162.52 24.1103 191.827 24.1103 191.933 23.9232C192.08 23.696 192.4 20.983 192.4 20.0474C192.4 19.2589 192.133 16.8666 191.947 16.0379C191.24 12.7769 190.267 10.4247 188.627 8.0457C187.653 6.62902 185.56 4.47726 184.173 3.47489C182.387 2.19186 179.493 0.882098 177.68 0.521244C175.013 1.21798e-05 175.16 1.21798e-05 155.267 1.21798e-05C144.693 1.21798e-05 136.013 0.040107 135.973 0.0802018Z" fill="white"/>
<path d="M138.267 42.8346V58.8057H146.733H155.2L155.227 49.4101L155.267 40.028L165.667 39.9478C174.413 39.881 176.227 39.8409 177.093 39.6671C183.347 38.3707 188.307 34.1073 190.853 27.7991C191.04 27.3313 191.2 26.9303 191.2 26.9036C191.2 26.8769 179.293 26.8635 164.733 26.8635H138.267V42.8346Z" fill="white"/>
</svg>
