<svg width="107" height="69" viewBox="0 0 107 69" fill="none" xmlns="http://www.w3.org/2000/svg">
<path d="M11.3612 0.0732301C8.20118 0.139897 5.30785 0.246563 4.90785 0.326563C4.52119 0.406562 3.89452 0.633228 3.53452 0.833228C2.62785 1.32656 1.32119 2.77989 0.774523 3.88655C0.334523 4.76655 0.32119 4.89988 0.214523 6.93987C0.0145232 10.6599 -0.0788101 45.5797 0.0811898 55.0197C0.24119 65.113 0.147856 64.4463 1.61452 66.2863C2.50785 67.4063 3.56119 68.2463 4.36119 68.473C5.26785 68.753 22.3612 68.8597 61.8278 68.873H101.628L102.694 68.273C103.908 67.5797 104.908 66.6597 105.801 65.4197L106.414 64.5663L106.468 37.4198C106.494 21.9265 106.468 9.0732 106.401 7.45987L106.268 4.65988L105.814 3.79322C105.188 2.60656 103.814 1.24656 102.708 0.726561C101.948 0.366562 101.614 0.299896 100.001 0.179896C97.7478 0.0198969 19.7478 -0.0734361 11.3612 0.0732301ZM100.734 1.51323C101.694 1.61989 102.228 1.73989 102.534 1.92656C103.014 2.21989 104.201 3.43322 104.801 4.21988L105.161 4.69988L105.148 24.4198C105.134 48.9264 104.988 63.6597 104.761 64.4063C104.521 65.1797 103.961 65.8197 102.734 66.7397L101.654 67.5397H53.2678H4.89452L3.98785 66.8863C2.97452 66.1397 2.33452 65.4063 1.94785 64.5263C1.49452 63.5264 1.44119 59.5397 1.42786 31.3665V5.00655L1.96119 4.15322C2.53452 3.25989 3.40119 2.36656 4.04119 2.03322C4.92119 1.57989 5.66785 1.49989 9.82785 1.40656C16.4278 1.25989 99.1211 1.35323 100.734 1.51323Z" fill="white"/>
<path d="M17.3212 24.4732C17.1478 24.5398 16.9345 24.7932 16.8412 25.0332C16.2678 26.4065 10.7612 42.6598 10.7612 42.9664C10.7612 43.1664 13.2812 43.2064 15.2545 43.0464L16.3478 42.9664L17.1078 40.6864C18.0278 37.9131 18.5078 36.9131 18.9478 36.7931C19.8145 36.5798 20.1745 37.1531 20.6145 39.4064C20.7745 40.1798 20.9612 41.1664 21.0545 41.6064C21.1612 42.1531 21.3212 42.5131 21.5745 42.7664L21.9345 43.1398H24.4145C25.7745 43.1398 27.0412 43.0731 27.2412 43.0064C27.5745 42.8731 27.5878 42.8198 27.5212 42.2998C27.2945 40.6731 25.8145 36.3798 25.1612 35.4598L24.7612 34.8998L26.1878 34.1265C28.7345 32.7265 30.3478 30.6865 30.6812 28.4331C30.8678 27.2198 30.2145 25.8865 29.1612 25.3398C28.6145 25.0598 27.3478 24.7665 25.9612 24.6065C24.1745 24.4065 17.7078 24.2998 17.3212 24.4732ZM23.2412 28.6065C23.8145 28.8331 24.2278 29.2731 24.2278 29.6598C24.2145 30.2598 23.7612 31.0598 23.0412 31.6998C22.2678 32.3931 21.4145 32.7398 20.4545 32.7398C19.8145 32.7398 19.8012 32.7398 19.8945 32.3798C19.9345 32.1798 20.2545 31.2865 20.5878 30.3798C21.4012 28.1531 21.6278 28.0065 23.2412 28.6065Z" fill="white"/>
<path d="M52.8678 24.4198C52.6812 24.4598 52.4812 24.5932 52.4278 24.7132C52.2812 25.0998 51.0545 28.6465 49.4678 33.2731C48.6278 35.7265 47.5478 38.8731 47.0678 40.2464C46.6012 41.6198 46.2412 42.8464 46.2812 42.9398C46.3612 43.1664 48.3612 43.2064 50.6012 43.0598L51.8145 42.9664L52.5745 40.7531C53.3478 38.4998 53.7212 37.6198 53.9478 37.4731C54.0278 37.4331 54.7345 37.3398 55.5212 37.2731C60.3745 36.8465 63.5212 34.9931 65.1612 31.6065C66.4945 28.8465 66.3478 26.4998 64.7745 25.4732C64.0945 25.0198 63.6545 24.8998 61.6945 24.6598C60.0812 24.4732 53.6145 24.2865 52.8678 24.4198ZM59.0012 28.8731C59.5212 29.0731 59.6945 29.3531 59.6945 30.0331C59.6945 31.1798 58.5478 32.6998 57.4678 32.9931C56.4145 33.2865 55.2012 33.0865 55.3345 32.6331C55.6678 31.5398 56.5878 28.7798 56.6545 28.6731C56.7612 28.4998 58.3612 28.6331 59.0012 28.8731Z" fill="white"/>
<path d="M70.2145 29.9264C68.5878 30.2864 68.1478 30.5264 67.7745 31.2598C67.4145 31.9664 66.9345 33.7531 67.0545 33.8864C67.1078 33.9264 67.6678 33.8064 68.3211 33.6198C70.8011 32.8998 72.5345 32.8464 73.2945 33.4998C74.0811 34.1531 73.8411 34.2864 71.0945 34.7398C66.9478 35.4331 65.0811 36.4731 64.0011 38.7264C63.3211 40.1131 63.2411 41.2597 63.7478 42.1264C64.3878 43.2197 65.6278 43.6864 67.1611 43.4197C68.1211 43.2464 69.7211 42.5531 70.4678 41.9797C70.7078 41.7931 70.9345 41.6731 70.9745 41.7131C71.0145 41.7397 70.9211 42.0864 70.7745 42.4597L70.5211 43.1397H73.0811H75.6545L76.0811 41.8997C78.2678 35.7398 78.6678 34.3264 78.6811 32.8731C78.6811 31.7264 78.4945 31.2731 77.7478 30.6064C76.8545 29.8331 76.5478 29.7531 73.8278 29.7131C71.8145 29.6864 71.1478 29.7264 70.2145 29.9264ZM72.2678 37.7131C72.2011 38.5664 70.9745 39.6731 69.9745 39.7797C69.2278 39.8464 68.8945 39.6064 68.8945 38.9931C68.8945 38.1264 70.3745 37.2331 71.6945 37.3131C72.2678 37.3398 72.2945 37.3531 72.2678 37.7131Z" fill="white"/>
<path d="M33.2012 29.9531C33.0012 30.2065 30.5478 37.7264 30.2145 39.0731C29.7478 41.0198 29.9212 42.0597 30.8412 42.8731C31.4945 43.4464 32.1612 43.5797 33.4012 43.4064C34.8412 43.2064 35.4678 42.9664 36.6945 42.1531C37.2812 41.7531 37.7745 41.4731 37.8012 41.5398C37.8278 41.5931 37.7478 41.8731 37.6412 42.1397C37.2145 43.1397 37.2145 43.1397 39.1345 43.1397C40.0678 43.1397 41.3078 43.0997 41.9078 43.0597L42.9878 42.9664L45.1478 36.5931C46.3345 33.0731 47.2678 30.1398 47.2278 30.0731C47.1345 29.9265 42.8145 29.8865 42.1478 30.0198C41.7745 30.0865 41.7212 30.2065 40.6278 33.4331C39.2545 37.4998 38.8278 38.4331 38.0678 38.9931C37.3878 39.4998 36.4545 39.5798 36.2278 39.1531C35.9078 38.5398 36.0678 37.8598 37.8145 32.4864C38.2545 31.1265 38.5878 29.9931 38.5612 29.9531C38.5212 29.9265 37.3345 29.8598 35.9212 29.8331C33.8545 29.7798 33.3212 29.8065 33.2012 29.9531Z" fill="white"/>
<path d="M81.2278 29.9531C81.1745 30.0198 81.1745 30.5531 81.2145 31.1131C81.2545 31.6731 81.3878 33.3664 81.5078 34.8731C81.6145 36.3798 81.8278 38.8998 81.9745 40.4731L82.2278 43.3397L81.7345 43.7797C79.8945 45.4064 79.5478 45.5531 78.1078 45.2864L77.2278 45.1264L76.9345 45.4997C76.5478 45.9797 75.9611 47.5531 75.8678 48.3664C75.8011 48.9664 75.8145 49.0064 76.1745 49.1531C76.7078 49.3531 79.5878 49.3531 80.5478 49.1531C82.0145 48.8331 83.3211 48.1131 84.5345 46.9397C85.4145 46.0864 89.4011 40.7397 93.7211 34.6064C96.1478 31.1531 96.7744 30.1665 96.6011 30.0465C96.3611 29.8998 92.0544 29.9131 91.6544 30.0598C91.4544 30.1398 91.0944 30.6065 90.6411 31.4331C90.2544 32.1131 89.2011 33.8998 88.3078 35.3931C86.7345 38.0464 86.6945 38.1131 86.6545 37.6064C86.6145 37.1264 86.9211 33.1264 87.1611 30.9398C87.2144 30.4198 87.2278 29.9665 87.2011 29.8998C87.1078 29.7398 81.3211 29.7798 81.2278 29.9531Z" fill="white"/>
</svg>
