<svg width="79" height="50" viewBox="0 0 79 50" fill="none" xmlns="http://www.w3.org/2000/svg">
<path d="M53.9372 18.0224C54.6028 17.7152 55.1148 17.0496 55.2684 16.2304C55.4732 15.36 55.166 14.6944 54.5516 14.4384C54.5004 14.4384 52.8108 14.2848 52.8108 14.2848L52.5036 14.2336V14.5408L51.6844 18.0736L51.6332 18.2272H52.094C52.7084 18.3296 53.374 18.2784 53.9372 18.0224ZM54.3468 29.0816L53.7324 31.1296C53.7324 31.1296 54.398 30.8224 54.8076 30.72C55.2172 30.6176 55.7804 30.5664 55.7804 30.5664L56.2412 29.0816H54.3468ZM59.7228 23.0912C59.9788 23.0912 60.4908 22.9376 60.6956 22.6304C60.798 22.4768 60.9004 22.272 61.0028 22.016C61.1052 21.7088 61.1564 21.3504 61.2588 21.0432C61.31 20.7872 61.3612 20.5824 61.4124 20.3776C61.4636 19.6096 61.2076 19.1488 60.6956 19.1488C59.9276 19.1488 59.6204 20.1216 59.3132 21.248C59.2108 21.6576 59.1596 22.016 59.1596 22.3744C59.1596 23.0912 59.6204 23.0912 59.7228 23.0912ZM34.942 22.9888C35.198 22.9888 35.454 22.8352 35.6588 22.528C35.966 22.1184 36.1708 21.1456 36.222 20.8896C36.478 19.712 36.478 18.9952 35.8124 18.9952C35.0444 18.9952 34.7372 19.968 34.4812 21.0944C34.3788 21.504 34.3276 21.8624 34.3276 22.2208C34.3788 22.9888 34.8396 22.9888 34.942 22.9888ZM51.9404 37.0176H53.7836L54.2956 35.2256H52.4524L51.9404 37.0176ZM52.8108 34.2016C52.8108 34.2016 53.5276 33.8432 53.886 33.7408C54.2444 33.6384 54.8588 33.5872 54.8588 33.5872L55.3196 32.1024H53.4764L52.8108 34.2016ZM46.1548 32.2048L46.4108 31.488H43.6972L43.5436 32.2048H45.7452C46.0524 32.2048 46.1548 32.256 46.1548 32.2048ZM47.1788 29.1328H44.2604L44.0044 30.3104C44.2604 30.208 44.6188 30.1056 44.9772 30.0544C45.2332 30.0032 46.974 30.0032 46.974 30.0032L47.1788 29.1328ZM42.2124 33.6384L41.2396 36.8128C41.1372 37.12 41.086 37.2736 41.1884 37.376C41.2396 37.4272 41.2908 37.4784 41.3932 37.5296L42.3148 33.6384H42.2124ZM75.0316 0.0511993H57.982C57.7772 -6.61612e-07 57.5724 0 57.2652 0H34.5836C34.3788 0 34.174 -6.61612e-07 34.0204 0.0511993H15.4348C12.67 0.0511993 9.90516 2.304 9.29076 5.0688L0.12596 44.4416C-0.48844 47.2064 1.20116 49.4592 3.96596 49.4592H23.678C23.8828 49.4592 24.0876 49.4592 24.2412 49.408H43.646C40.8812 49.408 39.1916 47.1552 39.806 44.3904L41.0348 39.2192H40.83C40.318 39.2192 39.9084 39.2192 39.6524 39.168C39.3964 39.168 39.1404 39.168 38.9356 39.0144C38.782 38.8608 38.526 38.7072 38.526 38.5024C38.526 38.3488 38.6284 38.0416 38.7308 37.632L41.8028 27.4432H43.7484L44.4652 24.4224C44.1068 24.4224 43.7484 24.4224 43.1852 24.4736L43.134 24.3712C43.2364 23.9104 43.3388 23.5008 43.4412 23.04L43.5948 22.4256C43.7996 21.504 44.0044 20.3776 44.0556 20.0704C44.0556 19.8656 44.158 19.3536 43.5948 19.3536C43.3388 19.3536 43.0828 19.456 42.8268 19.5584C42.6732 20.0704 42.4172 21.4528 42.2636 22.1184C42.0076 23.4496 41.9564 23.6032 41.854 24.2688L41.7516 24.3712C40.7276 24.3712 40.3692 24.3712 39.1916 24.4224L39.1404 24.32C39.3452 23.5008 39.55 22.6816 39.7036 21.9136C40.2156 19.7632 40.318 18.8928 40.4204 17.8176L40.5228 17.7664C41.6492 17.6128 41.9564 17.5616 43.1852 17.3056L43.2876 17.408L43.134 18.1248C43.3388 18.0224 43.5436 17.8688 43.7484 17.7664C44.3116 17.5104 44.9772 17.408 45.3356 17.408C45.5916 17.408 45.8476 17.4592 46.0524 17.5104L48.9708 4.9664C49.534 2.4576 51.838 0.4096 54.2956 0H55.2172C52.7596 0.4096 50.4556 2.4576 49.8924 4.9664L46.7692 18.3296C46.9228 18.8416 46.7692 19.5584 46.462 20.7872L46.3084 21.504C46.0012 22.9888 45.95 23.296 45.7452 24.32L45.6428 24.4224H45.3356L44.5164 27.9552L44.8236 27.8016C45.3356 27.648 46.4108 27.4432 46.4108 27.4432H49.9436L48.7148 31.488C48.51 32.2048 48.254 32.6144 48.1004 32.8192C47.9468 33.024 47.7932 33.2288 47.486 33.3824C47.1788 33.536 46.9228 33.6384 46.6668 33.6384C46.4108 33.6384 46.0524 33.6896 45.5916 33.6896H43.134L42.2636 37.5296L42.9804 37.4784L42.4684 39.2192H41.854L40.6252 44.3904C39.9596 47.1552 41.7004 49.408 44.4652 49.408H64.3308C66.7884 48.9984 69.0412 46.9504 69.6556 44.4928L78.8204 5.12C79.486 2.304 77.7452 0.0511993 75.0316 0.0511993ZM16.3564 23.6544C15.486 24.1664 14.1548 24.4736 12.7724 24.4736C11.6972 24.4736 9.80276 24.32 9.13716 23.1424C8.93236 22.784 8.82996 22.3232 8.82996 21.8112L9.08596 20.0192L9.23956 19.456L10.7244 13.0048C10.7244 13.0048 10.7756 12.6464 10.8268 12.5952C10.878 12.6464 11.3388 12.6464 14.1548 12.6464V12.7488C13.8988 13.5168 12.4652 19.2512 12.4652 19.2512L12.2092 20.992V21.2992C12.3116 22.1696 12.8236 22.5792 13.694 22.5792C14.2572 22.5792 14.718 22.4256 15.1276 22.0672C15.8444 21.504 16.0492 20.5824 16.3564 19.3024C16.3564 19.3024 17.7388 13.0048 17.79 12.6464C17.9948 12.6976 18.558 12.6976 20.606 12.6976V12.8C20.35 13.568 18.8652 19.5584 18.8652 19.5584L18.7116 20.1728C18.302 21.3504 17.8924 22.7328 16.3564 23.6544ZM26.75 20.7872L26.5964 21.504C26.2892 22.9888 26.238 23.296 26.0332 24.32L25.9308 24.4224H23.934L19.2748 44.3392C18.6092 47.104 20.35 49.3568 23.1148 49.3568H22.0396C19.2748 49.3568 17.5852 47.104 18.1996 44.3392L23.9852 19.4048C23.934 19.4048 23.8828 19.3536 23.7804 19.3536C23.5244 19.3536 23.2684 19.456 23.0636 19.5584C22.91 20.0704 22.654 21.4528 22.5004 22.1184C22.2444 23.4496 22.1932 23.6032 22.0908 24.2688L21.9884 24.3712C20.9644 24.3712 20.606 24.3712 19.4284 24.4224L19.3772 24.32C19.582 23.5008 19.7868 22.6816 19.9404 21.9136C20.4524 19.7632 20.5548 18.8928 20.7084 17.8176L20.8108 17.7664C21.9372 17.6128 22.2444 17.5616 23.4732 17.3056L23.5756 17.408L23.3708 18.1248C23.5756 18.0224 23.7804 17.8688 23.9852 17.7664C24.1388 17.7152 24.2412 17.664 24.3948 17.6128L27.3644 4.9664C27.9276 2.4576 30.2316 0.4096 32.6892 0H33.7644C31.3068 0.4096 29.0028 2.4576 28.4396 4.9664L25.5212 17.408H25.5724C26.1356 17.408 26.6988 17.5616 26.9548 18.176C27.2108 18.7392 27.0572 19.456 26.75 20.7872ZM30.8972 20.3776C30.7948 20.8384 30.6924 21.3504 30.59 21.8112C30.3852 22.784 30.2828 23.1936 30.2316 23.4496C30.1804 23.7056 30.1804 23.8592 30.078 24.3712L30.0268 24.4224L29.9756 24.4736H28.5932C28.2348 24.4736 27.8764 24.4736 27.3132 24.5248L27.262 24.4736L27.2108 24.4224C27.3644 23.8592 27.4668 23.6544 27.518 23.4496C27.5692 23.2448 27.6716 23.04 27.774 22.4768C27.9276 21.7088 28.03 21.1968 28.1324 20.736C28.1836 20.2752 28.2348 19.9168 28.3372 19.456L28.3884 19.4048L28.4396 19.3536C29.054 19.2512 29.4124 19.2 29.822 19.1488C30.2316 19.0976 30.59 18.9952 31.2044 18.8928V18.9952C31.1532 19.4048 30.9996 19.8656 30.8972 20.3776ZM31.0508 18.3296C30.3852 18.7904 29.4124 18.8928 28.8492 18.5856C28.286 18.2784 28.3884 17.6128 29.054 17.152C29.7196 16.6912 30.6924 16.5888 31.2556 16.9472C31.7676 17.2544 31.6652 17.8688 31.0508 18.3296ZM31.9212 21.0432C32.126 20.1216 32.4844 19.2 33.2524 18.4832C34.3276 17.5104 35.6588 17.4592 36.222 17.4592C37.1948 17.4592 38.0652 17.664 38.5772 18.3296C38.9356 18.7904 39.1916 19.456 38.8332 20.992C38.7308 21.4528 38.4236 22.5792 37.758 23.296C36.8876 24.2176 35.71 24.5248 34.5836 24.5248C34.1228 24.5248 33.4572 24.4736 32.9964 24.2688C31.4604 23.7056 31.7164 22.016 31.9212 21.0432ZM39.6524 32.4608H37.1436L36.734 33.7408H39.294L38.8332 35.2768H36.2732L35.6588 37.3248C35.6076 37.5296 36.2732 37.5808 36.5292 37.5808L37.8092 37.4272L37.2972 39.168H34.3788C34.1228 39.168 33.9692 39.1168 33.7132 39.0656C33.4572 39.0144 33.3548 38.912 33.2524 38.7072C33.15 38.5536 32.9964 38.4 33.0988 38.0416L33.918 35.2768H32.4844L32.9452 33.6896H34.3788L34.7372 32.4096H33.3036L33.7644 30.9248H40.062L39.6524 32.4608ZM40.6252 28.2624L40.1644 29.8496H36.6316L36.222 30.1568C36.0684 30.3104 36.0172 30.2592 35.8124 30.3616C35.6076 30.464 35.198 30.6688 34.6348 30.6688H33.5084L33.9692 29.184H34.3276C34.6348 29.184 34.8396 29.1328 34.8908 29.0816C34.9932 29.0304 35.1468 28.8768 35.3004 28.5696L35.966 27.392H38.526L38.0652 28.2624H40.6252ZM60.8492 17.6128C61.2588 17.7664 61.5148 18.0224 61.7196 18.3296C61.7196 18.2272 61.7708 18.176 61.7708 18.0736L61.8732 18.0224C63.0508 17.8688 63.358 17.8176 64.638 17.5616L64.6892 17.664C64.4844 18.5856 64.2284 19.5072 64.0236 20.48C63.5628 22.4256 63.4092 23.4496 63.2044 24.4736L63.102 24.576C61.9244 24.576 61.566 24.576 60.4396 24.6272L60.3884 24.5248C60.4396 24.3712 60.4396 24.2688 60.4908 24.1152C60.0812 24.4736 59.6716 24.6784 59.2108 24.7296C58.75 24.7296 58.3404 24.6784 57.8284 24.4736C56.2924 23.8592 56.5484 22.1696 56.7532 21.2992C56.958 20.3776 57.3164 19.456 58.0844 18.7392C59.1084 17.664 60.3372 17.408 60.8492 17.6128ZM47.23 24.4224C47.3324 24.064 49.1756 16.4864 49.1756 16.4864L49.9436 12.9024C49.9436 12.9024 49.9948 12.6464 50.046 12.4928C50.4044 12.544 51.2748 12.544 53.374 12.544H54.1932C55.8828 12.544 57.3164 12.5952 58.0332 13.568C58.3404 13.9776 58.4428 14.4384 58.4428 14.9504C58.4428 15.3088 58.3916 15.7184 58.2892 16.0256C57.982 17.3056 57.3164 18.3808 56.3436 19.0976C54.91 20.1728 53.118 20.1728 51.4796 20.1728H51.326C51.2236 20.224 51.07 20.3776 51.07 20.3776C51.07 20.4288 50.6604 21.9648 50.6604 21.9648C50.6604 21.9648 50.1996 24.064 50.1484 24.4224H47.23ZM47.9468 34.9184C47.8444 35.2256 47.7932 35.4304 47.5372 35.6352C47.2812 35.84 47.0252 36.0448 46.3596 36.0448L45.1308 36.096V37.1712C45.1308 37.4784 45.182 37.4272 45.2332 37.4784C45.2844 37.5296 45.3356 37.5296 45.3868 37.5808H45.7964L46.974 37.5296L46.5132 39.1168H45.182C44.2604 39.1168 43.5436 39.1168 43.3388 38.912C43.134 38.7584 43.0828 38.6048 43.0828 38.2976L43.1852 34.048H45.3356L45.2844 34.9184H45.7964C45.95 34.9184 46.1036 34.9184 46.1548 34.8672C46.206 34.816 46.2572 34.7648 46.3084 34.6624L46.5132 33.9968H48.2028L47.9468 34.9184ZM55.422 39.168H53.118L53.2716 38.656H48.6124L49.0732 37.12H49.534L51.9404 29.0304L52.4524 27.392H54.7564L54.5004 28.2112C54.5004 28.2112 55.1148 27.7504 55.7292 27.5968C56.19 27.4944 58.5964 27.392 59.4156 27.392H61.9244L61.9756 28.3136C61.9756 28.4672 62.078 28.5184 62.3852 28.5184H62.8972L62.4364 30.0544H61.1052C59.9276 30.1568 59.518 29.6448 59.518 29.0816L59.4668 28.16L59.2108 28.9792H58.3916L55.9852 36.9664H56.6508L56.1388 38.6048H55.4732L55.422 39.168ZM65.7132 32.1024H63.2044L62.7948 33.3312H65.3036L64.894 34.7136H62.1804L61.6684 35.2768H62.7436L62.9996 37.0176C63.0508 37.1712 63.0508 37.2736 63.102 37.376C63.1532 37.4272 63.5116 37.4784 63.6652 37.4784H63.9724L63.4604 39.168H62.6412C62.4876 39.168 62.334 39.168 62.0268 39.1168C61.7708 39.1168 61.6172 38.9632 61.4124 38.8608C61.2588 38.8096 61.0028 38.6048 60.9516 38.2976L60.6956 36.608L59.4668 38.2976C59.0572 38.8096 58.5452 39.2192 57.6236 39.2192H55.8828L56.3436 37.7344H57.0092C57.214 37.7344 57.3676 37.6832 57.47 37.5808C57.6236 37.5296 57.726 37.4784 57.8284 37.2736L59.6204 34.7648H57.2652L57.6748 33.3824H60.3884L60.798 32.1536H58.1356L58.5964 30.6176H66.0204L65.7132 32.1024ZM66.2252 29.1328C65.918 29.696 65.3548 30.1056 64.4332 30.1056H62.8972L63.358 28.6208H63.6652C63.8188 28.6208 63.9212 28.6208 64.0236 28.5696C64.0748 28.5184 64.1772 28.4672 64.2284 28.416L64.7404 27.5456C65.5084 26.368 65.7132 25.9072 66.4812 24.576C66.3276 23.0912 66.2764 22.6304 66.174 21.6576C66.1228 21.0944 66.0204 20.48 65.9692 19.9168C65.8156 18.7392 65.8668 18.8928 65.7132 18.1248V17.9712L65.8156 17.8688C66.9932 17.7152 67.0444 17.664 68.3244 17.4592L68.4268 17.5616L68.5804 20.8384V21.0432C69.246 19.5072 69.246 19.968 70.0652 18.0224V17.9712L70.1676 17.8688C71.294 17.7152 71.4988 17.664 72.7276 17.4592L72.83 17.5616L66.2252 29.1328Z" fill="white"/>
</svg>
