<svg width="96" height="32" viewBox="0 0 96 32" fill="none" xmlns="http://www.w3.org/2000/svg">
<path d="M89.376 1.6284H83.368C81.502 1.6284 80.114 2.1364 79.294 3.9964L67.748 30.1444H75.914C75.914 30.1444 77.246 26.6284 77.548 25.8584C78.442 25.8584 86.376 25.8704 87.506 25.8704C87.738 26.8664 88.454 30.1444 88.454 30.1444H95.668L89.376 1.6284ZM79.786 20.0204C80.426 18.3824 82.884 12.0464 82.884 12.0464C82.842 12.1244 83.518 10.3964 83.92 9.3224L84.444 11.7824C84.444 11.7824 85.934 18.5944 86.246 20.0204H79.786ZM68.292 20.8084C68.236 26.7344 62.924 30.5584 54.75 30.5584C51.264 30.5224 47.906 29.8364 46.086 29.0384L47.18 22.6524L48.182 23.1084C50.736 24.1724 52.39 24.6024 55.504 24.6024C57.738 24.6024 60.13 23.7264 60.154 21.8164C60.168 20.5664 59.152 19.6764 56.122 18.2764C53.17 16.9104 49.262 14.6224 49.312 10.5244C49.354 4.9784 54.77 1.1084 62.454 1.1084C65.466 1.1084 67.88 1.7284 69.42 2.3064L68.368 8.4904L67.666 8.1604C66.234 7.5844 64.39 7.0284 61.846 7.0684C58.802 7.0684 57.39 8.3364 57.39 9.5224C57.374 10.8584 59.038 11.7384 61.758 13.0624C66.252 15.0924 68.326 17.5664 68.292 20.8084ZM0 1.9244L0.1 1.3524H12.156C13.782 1.4144 15.092 1.93239 15.544 3.6704L18.166 16.2784C15.59 9.6844 9.382 4.1984 0 1.9244ZM35.162 1.6244L22.916 30.1024L14.688 30.1164L7.724 6.3224C12.73 9.5264 16.994 14.6104 18.496 18.1504L19.308 21.0884L26.924 1.6304L35.162 1.6244ZM38.306 1.6004H46.086L41.22 30.1324H33.444L38.306 1.6004Z" fill="white"/>
</svg>
